<?xml version="1.0" standalone="no"?>
<!DOCTYPE svg PUBLIC "-//W3C//DTD SVG 1.1//EN" "http://www.w3.org/Graphics/SVG/1.1/DTD/svg11.dtd" >
<svg xmlns="http://www.w3.org/2000/svg">
<metadata></metadata>
<defs>
<font id="brandon_textlight_italic" horiz-adv-x="1228" >
<font-face units-per-em="2048" ascent="1434" descent="-614" />
<missing-glyph horiz-adv-x="491" />
<glyph unicode="&#xfb01;" horiz-adv-x="1073" d="M82 -457l182 1317h-139q-34 0 -27 37l4 18q1 12 12 21.5t23 9.5h137l17 113q30 203 129.5 299t253.5 96q99 0 176.5 -40t118.5 -83q14 -18 -2 -37l-25 -28q-14 -20 -39 -2l-22 18q-22 18 -29.5 24t-32 21t-42.5 21t-46 12t-57 6q-124 0 -195 -73.5t-94 -233.5l-16 -113 h553q13 0 20.5 -9.5t5.5 -21.5l-125 -884q-3 -31 -28 -31h-37q-9 0 -17.5 9.5t-7.5 21.5l115 829h-492l-182 -1317q-2 -11 -11.5 -20.5t-19.5 -9.5h-34q-13 0 -21 9.5t-6 20.5z" />
<glyph unicode="&#xfb02;" horiz-adv-x="1142" d="M86 -457l182 1317h-143q-31 0 -27 31l4 24q1 12 12 21.5t23 9.5h139l17 107q13 101 52 179.5t94.5 126t120 71.5t134.5 24q101 0 181.5 -45t101.5 -78l20 76q2 10 5 14.5t10.5 8.5t21.5 4h15q11 0 17.5 -9t4.5 -20l-197 -1374q-1 -14 -11.5 -22.5t-20.5 -8.5h-31 q-12 0 -19.5 9.5t-5.5 21.5l168 1198q-10 15 -26.5 32t-49.5 44t-81.5 44t-102.5 17q-112 0 -198 -79.5t-109 -233.5l-16 -107h305q30 0 24 -28l-6 -31q-4 -27 -32 -27h-304l-182 -1317q-2 -11 -11.5 -20.5t-19.5 -9.5h-34q-13 0 -20 9.5t-5 20.5z" />
<glyph horiz-adv-x="0" />
<glyph horiz-adv-x="0" />
<glyph horiz-adv-x="682" />
<glyph unicode="&#xd;" horiz-adv-x="0" />
<glyph unicode=" "  horiz-adv-x="491" />
<glyph unicode="&#x09;" horiz-adv-x="491" />
<glyph unicode="&#xa0;" horiz-adv-x="491" />
<glyph unicode="!" horiz-adv-x="512" d="M102 51q0 39 28.5 65.5t64.5 26.5q30 0 48.5 -20t18.5 -51q0 -38 -26.5 -65t-63.5 -27q-30 0 -50 20.5t-20 50.5zM221 575l96 832q2 27 33 27h53q10 0 17.5 -8t5.5 -19l-137 -832q-3 -9 -11.5 -16.5t-17.5 -7.5h-16q-10 0 -17.5 7.5t-5.5 16.5z" />
<glyph unicode="&#x22;" horiz-adv-x="643" d="M209 1049l51 358q1 10 10.5 18.5t20.5 8.5h45q11 0 16 -9t2 -24l-86 -352q-8 -23 -22 -23h-23q-17 0 -14 23zM485 1049l54 358q2 11 10 19t18 8h45q26 0 19 -33l-86 -352q-1 -9 -8 -16t-15 -7h-22q-7 0 -11.5 6t-3.5 17z" />
<glyph unicode="#" horiz-adv-x="1075" d="M96 449l2 14q3 22 27 22h158l108 373h-160q-10 0 -17 8t-5 19l2 12q2 11 10.5 19t18.5 8h170l139 487q6 23 29 23h12q12 0 16.5 -9t1.5 -22l-137 -479h297l139 487q6 23 29 23h10q12 0 17 -9.5t2 -21.5l-136 -479h150q10 0 16 -8t4 -19l-2 -12q-2 -11 -9 -19t-17 -8h-158 l-108 -373h157q11 0 17.5 -8t5.5 -18l-2 -15q-3 -22 -27 -22h-170l-115 -399q-8 -23 -28 -23h-13q-29 0 -18 31l113 391h-299l-113 -399q-8 -23 -29 -23h-12q-29 0 -18 31l112 391h-151q-9 0 -15 8t-4 19zM346 485h297l107 373h-295z" />
<glyph unicode="$" d="M174 193l29 26q23 20 43 -6q105 -133 278 -145l86 614q-317 122 -317 375q0 49 15.5 101t50 102.5t83 91.5t120.5 68t157 32l10 76q1 12 11 19t20 7h8q11 0 17.5 -7t5.5 -19l-13 -78q46 -3 91 -14.5t76 -26t55.5 -28.5t36.5 -23l12 -10q15 -15 4 -31l-35 -49 q-4 -8 -14 -8t-19 8q-94 82 -219 94q-27 -202 -86 -610q159 -66 239 -151t80 -216q0 -85 -36.5 -159.5t-96.5 -126t-137.5 -83t-159.5 -36.5l-30 -222q-3 -24 -31 -24q-14 0 -22 5.5t-7 18.5l33 222q-220 19 -336 167q-22 28 -2 46zM389 1065q0 -106 60 -173.5t176 -115.5 l82 588q-80 -4 -143.5 -34.5t-100 -75.5t-55.5 -93.5t-19 -95.5zM582 68q128 8 222.5 96.5t94.5 212.5q0 95 -59.5 161.5t-173.5 116.5z" />
<glyph unicode="%" horiz-adv-x="1286" d="M164.5 8.5q-3.5 8.5 3.5 20.5l891 1390q9 15 28 15h37q12 0 16 -8.5t-3 -20.5l-887 -1385q-14 -20 -35 -20h-35q-12 0 -15.5 8.5zM182 1133q0 132 90 226.5t207 94.5q93 0 155 -71t62 -173q0 -132 -90 -226.5t-207 -94.5q-93 0 -155 71t-62 173zM262 1143 q0 -75 41.5 -126.5t106.5 -51.5q82 0 144 69.5t62 165.5q0 73 -42 124.5t-105 51.5q-84 0 -145.5 -69t-61.5 -164zM633 223q0 131 89.5 226.5t207.5 95.5q93 0 154 -71.5t61 -174.5q0 -130 -89.5 -226t-205.5 -96q-95 0 -156 71.5t-61 174.5zM711 231q0 -75 42 -125.5 t107 -50.5q81 0 144 69.5t63 164.5q0 73 -42 124.5t-107 51.5q-82 0 -144.5 -69.5t-62.5 -164.5z" />
<glyph unicode="&#x26;" horiz-adv-x="1249" d="M104 301q0 72 21 137t52 112t78.5 91t89 72.5t93.5 58.5l-37 47q-49 65 -74.5 128t-25.5 145q0 156 102 259t263 103q125 0 193.5 -77.5t68.5 -188.5q0 -61 -23 -118t-57 -100t-87 -86.5t-97 -72t-103 -61.5l305 -408q73 83 121.5 213t50.5 246q0 18 17 18h45 q20 0 20 -22q0 -127 -50.5 -263.5t-147.5 -259.5l157 -206q12 -12 15 -25.5t-9 -24.5l-32 -24q-23 -18 -41 4l-150 203q-8 -9 -22.5 -24t-62 -53t-96.5 -67t-121.5 -53t-141.5 -24q-145 0 -229.5 93t-84.5 228zM195 313q0 -107 66.5 -179.5t168.5 -72.5q59 0 120 21.5 t106 51.5t81 60.5t55 51.5l19 22l-326 443q-60 -35 -104.5 -69t-90.5 -82.5t-70.5 -111.5t-24.5 -135zM385 1094q0 -111 84 -224l45 -57q52 29 90 53.5t84.5 61t75.5 72t49.5 82t20.5 94.5q0 81 -47 139.5t-138 58.5q-107 0 -185.5 -86t-78.5 -194z" />
<glyph unicode="'" horiz-adv-x="364" d="M207 1049l53 358q2 11 10.5 19t18.5 8h45q25 0 18 -33l-86 -352q-8 -23 -22 -23h-23q-17 0 -14 23z" />
<glyph unicode="(" horiz-adv-x="669" d="M125 424q0 219 35 396t91.5 291t133 192t154 112.5t159.5 38.5q23 0 23 -18l-2 -31q0 -10 -6.5 -17.5t-12.5 -7.5q-227 -33 -356 -273t-129 -681q0 -236 73 -362.5t206 -147.5q18 -4 12 -25l-8 -34q-3 -17 -25 -17q-56 4 -105 24.5t-94.5 65t-77.5 109.5t-51.5 163.5 t-19.5 221.5z" />
<glyph unicode=")" horiz-adv-x="667" d="M-33 -143l2 37q0 20 21 24q229 33 356 270t127 678q0 236 -72 364.5t-204 149.5q-9 0 -13.5 8t-1.5 19l6 29q3 18 29 18q55 -3 103.5 -24t93.5 -66t77 -111t51 -165t19 -222q0 -219 -34.5 -396t-90 -290.5t-131 -191t-153 -111.5t-160.5 -37q-25 0 -25 17z" />
<glyph unicode="*" horiz-adv-x="798" d="M223 989q-8 25 10 35l181 113l-150 112q-7 5 -8 16t6 19l14 16q16 20 33 9l142 -113l28 211q1 10 10.5 18.5t18.5 8.5h16q10 0 17.5 -8t5.5 -19l-33 -211l172 115q11 7 21.5 4t13.5 -12l6 -17q8 -24 -12 -35l-180 -114l149 -115q7 -4 8 -15t-4 -18l-12 -18 q-6 -9 -18 -11.5t-19 3.5l-141 114l-27 -211q-4 -26 -31 -26h-14q-11 0 -17.5 8t-5.5 18l31 211l-170 -112q-11 -6 -21.5 -3.5t-13.5 11.5z" />
<glyph unicode="+" d="M250 694l6 33q2 11 10.5 19t18.5 8h313l49 352q1 10 9.5 17t19.5 7h33q11 0 17 -7t5 -17l-49 -352h311q10 0 17.5 -8t5.5 -19l-6 -33q-2 -11 -10.5 -18.5t-18.5 -7.5h-311l-49 -351q-2 -11 -10.5 -18.5t-18.5 -7.5h-35q-9 0 -15 8t-5 18l49 351h-314q-10 0 -17 7.5 t-5 18.5z" />
<glyph unicode="," horiz-adv-x="456" d="M45 -328q-13 12 6 31q63 63 100 123.5t37 130.5q0 31 -10 51q-22 -22 -53 -22q-29 0 -46.5 18.5t-17.5 46.5q0 38 29 66t70 28q49 0 76.5 -44.5t27.5 -112.5q0 -92 -47 -180.5t-125 -155.5q-14 -12 -26 0z" />
<glyph unicode="-" horiz-adv-x="770" d="M143 500l2 22q1 12 9.5 19.5t19.5 7.5h410q11 0 17 -7.5t5 -19.5l-2 -22q-4 -27 -31 -27h-409q-10 0 -16.5 8t-4.5 19z" />
<glyph unicode="." horiz-adv-x="442" d="M59 59q0 45 32.5 76t76.5 31q35 0 55.5 -23.5t20.5 -60.5q0 -43 -31 -74t-74 -31q-35 0 -57.5 24t-22.5 58z" />
<glyph unicode="/" horiz-adv-x="727" d="M47 8q-6 8 0 21l594 1388q7 17 27 17h32q14 0 19.5 -8.5t-0.5 -20.5l-596 -1387q-6 -18 -27 -18h-30q-13 0 -19 8z" />
<glyph unicode="0" horiz-adv-x="1265" d="M172 530q0 274 71.5 483t204.5 325t310 116q182 0 279.5 -147.5t97.5 -405.5q0 -275 -70.5 -483.5t-203 -323t-310.5 -114.5q-183 0 -281 146t-98 404zM266 535q0 -222 76 -345.5t221 -123.5q146 0 254.5 103.5t165.5 290.5t57 435q0 220 -76 344.5t-219 124.5 q-147 0 -256 -104t-166 -291t-57 -434z" />
<glyph unicode="1" horiz-adv-x="671" d="M154 1120q-13 17 6 33l321 268q13 13 37 13h21q8 0 13.5 -7.5t4.5 -17.5l-195 -1382q-2 -11 -11 -19t-21 -8h-41q-11 0 -18.5 8.5t-6.5 18.5l185 1249h-3l-235 -195q-19 -13 -31 2z" />
<glyph unicode="2" horiz-adv-x="1060" d="M35 25l2 18q3 22 16 35l561 547q139 133 205 239.5t66 220.5q0 54 -15 102t-46 87.5t-85 62.5t-125 23q-23 0 -46 -4t-42.5 -10.5t-39.5 -16.5t-36 -19.5t-33.5 -23t-28.5 -23t-25 -23t-20.5 -20.5t-16.5 -18t-11 -12q-20 -24 -39 -8l-32 24q-8 6 -7.5 17.5t9.5 21.5 q174 209 379 209q118 0 202 -50t122 -128t38 -174q0 -79 -21.5 -149.5t-69 -139t-94 -120.5t-124.5 -128l-485 -477v-2h616q11 0 18.5 -8.5t6.5 -18.5l-7 -32q-1 -10 -10 -18.5t-18 -8.5h-740q-11 0 -17.5 7.5t-6.5 17.5z" />
<glyph unicode="3" horiz-adv-x="1099" d="M76 178q-9 18 6 29l37 24q21 14 35 -10q13 -21 21.5 -33.5t34.5 -39t54 -42.5t76 -29.5t104 -13.5q157 0 265 99.5t108 255.5q0 84 -45 147t-109 92t-133 29h-178q-17 0 -21.5 6t-2.5 17l6 43q3 24 33 24h168q61 0 122.5 23.5t111.5 65.5t81 107t31 140q0 112 -66.5 181 t-171.5 69q-164 0 -313 -152l-6 -6q-16 -16 -33 0l-29 31q-7 6 -6.5 16.5t8.5 18.5q62 69 163.5 126.5t223.5 57.5q148 0 240 -89t92 -232q0 -140 -77 -247t-187 -155v-4q79 -30 139 -113.5t60 -187.5q0 -188 -137 -317t-349 -129q-244 0 -356 198z" />
<glyph unicode="4" horiz-adv-x="1189" d="M43 354l2 23q3 21 16 37l895 1024q13 16 35 16h15q18 0 16 -27l-141 -1013h145q11 0 17.5 -7.5t5.5 -19.5l-5 -31q-1 -10 -10 -18t-18 -8h-148l-43 -303q-4 -27 -28 -27h-43q-25 0 -21 29l43 301h-702q-18 0 -25.5 6t-5.5 18zM174 414h617l124 854h-4l-737 -850v-4z" />
<glyph unicode="5" horiz-adv-x="1112" d="M98 178q-9 18 6 29l41 24q7 6 17 3t16 -13q16 -25 22 -33.5t34.5 -38t55 -44t74.5 -28.5t103 -14q85 0 161.5 37.5t131.5 100.5t87 147.5t32 175.5q0 134 -76 212.5t-225 78.5h-310q-19 0 -28 13t-7 30l76 549q2 11 11 19t22 8h592q9 0 15 -8.5t5 -18.5l-4 -33 q-2 -12 -10 -20t-18 -8h-533l-63 -443h264q191 0 290 -97t99 -280q0 -146 -70 -272t-190.5 -200t-261.5 -74q-240 0 -359 198z" />
<glyph unicode="6" horiz-adv-x="1130" d="M139 459q0 136 32.5 260.5t82.5 217t122 175.5t139.5 139t146 104.5t131 73.5t104.5 46q22 6 31 -23l8 -25q9 -25 -27 -38q-44 -17 -98.5 -43.5t-136.5 -81.5t-153 -120t-137.5 -162.5t-100.5 -205.5h2q38 49 140 100.5t224 51.5q150 0 253.5 -110.5t103.5 -285.5 q0 -112 -41.5 -214.5t-110 -176t-159.5 -117.5t-187 -44q-123 0 -208 66t-123 171.5t-38 241.5zM229 469q0 -109 29.5 -198.5t97 -148.5t164.5 -59q98 0 188.5 61.5t146.5 167t56 224.5q0 140 -79.5 232t-198.5 92q-61 0 -123 -22t-104.5 -49.5t-81.5 -62.5t-53 -51.5 t-21 -25.5q-21 -62 -21 -160z" />
<glyph unicode="7" horiz-adv-x="954" d="M157.5 19q1.5 7 4.5 14l721 1308v5h-680q-15 0 -21.5 6.5t-3.5 25.5l4 31q3 25 33 25h766q14 0 20.5 -9t6.5 -20q0 -10 -13 -35l-733 -1345q-14 -25 -33 -25h-57q-9 0 -12.5 6t-2 13z" />
<glyph unicode="8" horiz-adv-x="1169" d="M125 319q0 80 29 151.5t77 122.5t105.5 86t118.5 52q0 2 2 4q-84 31 -141.5 111.5t-57.5 183.5q0 114 50 209t152.5 155t239.5 60q163 0 257 -95t94 -237q0 -141 -87.5 -244.5t-207.5 -142.5v-4q97 -28 164 -110.5t67 -198.5q0 -206 -128.5 -324t-358.5 -118 q-170 0 -272.5 91t-102.5 248zM217 334q0 -134 81.5 -204.5t209.5 -70.5q163 0 272 92.5t109 254.5q0 108 -78.5 186.5t-212.5 91.5q-168 -17 -274.5 -116.5t-106.5 -233.5zM350 1044q0 -114 68.5 -181.5t193.5 -76.5q158 12 250 99t92 227q0 110 -70 186t-194 76 q-148 0 -244 -100.5t-96 -229.5z" />
<glyph unicode="9" horiz-adv-x="1130" d="M164 907q0 111 42.5 213t111 174.5t159.5 116t185 43.5q93 0 164.5 -36.5t115.5 -101.5t66 -149.5t22 -185.5q0 -136 -32.5 -260.5t-82.5 -217t-122 -176t-139 -139t-146 -104.5t-131 -74.5t-105 -46.5q-22 -5 -28 17l-11 30q-10 28 27 41q43 16 98.5 42.5t137 81 t153 119.5t138 163.5t100.5 206.5h-2q-39 -49 -141 -101.5t-224 -52.5q-150 0 -253 111t-103 286zM258 922q0 -139 80 -230.5t199 -91.5q61 0 123 22t104.5 49.5t81.5 62.5t53 51.5t21 25.5q20 62 20 160q0 81 -17.5 151t-51.5 126.5t-91 89t-131 32.5q-152 0 -271.5 -133.5 t-119.5 -314.5z" />
<glyph unicode=":" horiz-adv-x="493" d="M84 59q0 45 32 76t74 31q35 0 55.5 -23.5t20.5 -60.5q0 -43 -30 -74t-72 -31q-35 0 -57.5 24t-22.5 58zM195 864q0 42 33.5 72.5t74.5 30.5q35 0 56.5 -22.5t21.5 -55.5q0 -46 -30.5 -78.5t-71.5 -32.5q-35 0 -59.5 26t-24.5 60z" />
<glyph unicode=";" horiz-adv-x="534" d="M78 -328q-12 12 6 31q63 63 100 123.5t37 130.5q0 31 -10 51q-22 -22 -53 -22q-29 0 -46.5 18.5t-17.5 46.5q0 38 29 66t70 28q49 0 76.5 -44.5t27.5 -112.5q0 -92 -47 -180.5t-125 -155.5q-15 -12 -27 0zM209 860q0 44 32.5 75.5t73.5 31.5q35 0 56.5 -22.5t21.5 -55.5 q0 -46 -30.5 -78.5t-71.5 -32.5q-35 0 -58.5 25t-23.5 57z" />
<glyph unicode="&#x3c;" d="M225 467v4q0 16 25 33l717 459q12 8 21.5 2.5t8.5 -23.5l-4 -53q0 -16 -22 -31l-615 -391l506 -383q18 -13 12 -35l-6 -33q-3 -18 -15 -23t-24 3l-587 444q-17 14 -17 27z" />
<glyph unicode="=" d="M266 350l4 35q4 27 29 27h575q10 0 17.5 -8t5.5 -19l-4 -35q-4 -26 -31 -26h-575q-25 0 -21 26zM326 776l4 35q4 27 30 27h576q9 0 15 -8.5t5 -18.5l-4 -35q-2 -11 -10 -18.5t-18 -7.5h-576q-26 0 -22 26z" />
<glyph unicode="&#x3e;" d="M201 16l6 54q3 21 20 30l613 377l-504 393q-16 10 -12 33l6 39q3 18 16 24t25 -3l583 -459q17 -14 17 -31v-2q0 -17 -25 -31l-713 -444q-12 -8 -22.5 -3t-9.5 23z" />
<glyph unicode="?" horiz-adv-x="868" d="M204.5 1259q-1.5 8 0.5 12t8 13q4 7 12.5 18.5t39.5 40.5t67.5 51.5t97.5 41t129 18.5q120 0 191 -71.5t71 -174.5q0 -48 -15.5 -93.5t-34 -76.5t-55 -67.5t-58 -53.5t-64 -48.5t-53.5 -39.5q-84 -66 -92 -124l-17 -117q-3 -29 -29 -29h-34q-28 0 -25 29l16 119 q13 101 132 188q7 5 46 34t49.5 38t41 35t41.5 42t28 42t23 52.5t6 55.5q0 69 -47 122.5t-131 53.5q-56 0 -106 -17t-83 -43t-51.5 -45.5t-29.5 -35.5q-12 -20 -35 -4l-29 20q-9 6 -10.5 14zM244 51q0 39 27 65.5t63 26.5q31 0 51.5 -20t20.5 -51q0 -38 -29 -65t-66 -27 q-29 0 -48 20.5t-19 50.5z" />
<glyph unicode="@" horiz-adv-x="1873" d="M111 317q0 239 73 448.5t202.5 361.5t317 239.5t406.5 87.5q213 0 366 -90.5t228.5 -247t75.5 -362.5q0 -93 -14.5 -187t-50 -190t-88.5 -169.5t-137 -120t-187 -46.5q-84 0 -128.5 44.5t-52.5 117.5q-22 -33 -58.5 -67t-100 -64.5t-129.5 -30.5q-128 0 -206.5 100.5 t-78.5 257.5q0 111 36.5 206.5t96.5 159.5t137 100t158 36q46 0 86 -11t65 -27.5t38 -28t20 -21.5l12 43q5 14 11 19.5t20 5.5h20q10 0 17.5 -8t5.5 -19l-74 -514q-29 -223 119 -223q115 0 203 86.5t133 228.5t45 313q0 140 -38 255t-111.5 199.5t-188.5 131.5t-262 47 q-196 0 -364.5 -79t-287 -217.5t-186 -333.5t-67.5 -420q0 -241 108.5 -429t292.5 -284q13 -6 14.5 -13t-6.5 -20l-18 -33q-12 -20 -31 -12q-202 102 -322 308.5t-120 471.5zM641 412q0 -127 57.5 -206t153.5 -79q54 0 101.5 22.5t78.5 57.5t47.5 60.5t26.5 47.5l55 387 q-1 4 -7 15t-21 29t-35.5 33t-54 26.5t-72.5 11.5q-133 0 -231.5 -113t-98.5 -292z" />
<glyph unicode="A" horiz-adv-x="1239" d="M-52 8q-1 3 -1 7q0 6 4 14l758 1411q7 14 26 14h6q21 0 25 -14l373 -1415q2 -5 2 -9q0 -16 -25 -16h-53q-23 0 -27 18l-94 377h-692l-197 -377q-9 -18 -33 -18h-59q-10 0 -13 8zM297 475h623l-197 815h-6z" />
<glyph unicode="B" horiz-adv-x="1193" d="M129 27l195 1380q1 10 10 18.5t18 8.5h396q153 0 243 -87t90 -231q0 -135 -71 -238t-176 -149v-2q82 -33 137 -108.5t55 -178.5q0 -198 -131.5 -319t-331.5 -121h-411q-10 0 -17.5 8t-5.5 19zM231 86h349q145 0 243.5 95t98.5 249q0 116 -77 184t-204 68h-326zM330 770 h319q142 0 236 96.5t94 239.5q0 110 -65 173.5t-179 63.5h-325z" />
<glyph unicode="C" horiz-adv-x="1343" d="M133 616q0 173 63 329t168.5 267t248 176.5t296.5 65.5q264 0 424 -190q6 -6 6 -17q0 -13 -8 -20l-35 -31q-17 -15 -34 2q-65 78 -159 121t-204 43q-128 0 -249.5 -59.5t-212 -158t-145 -235t-54.5 -282.5q0 -151 60 -275.5t170.5 -198t248.5 -73.5q208 0 399 172 q20 17 33 4l39 -43q6 -6 5 -16.5t-9 -18.5q-216 -198 -475 -198q-163 0 -295.5 85t-206.5 230.5t-74 320.5z" />
<glyph unicode="D" horiz-adv-x="1398" d="M129 27l195 1380q2 11 9.5 19t16.5 8h395q153 0 281 -84t201 -227t73 -312q0 -164 -62 -314.5t-164.5 -259t-241.5 -173t-287 -64.5h-395q-9 0 -15.5 8.5t-5.5 18.5zM233 88h306q130 0 251 56t210.5 151t143.5 229t54 283q0 151 -60 273.5t-171 194t-252 71.5h-305z" />
<glyph unicode="E" horiz-adv-x="1101" d="M129 27l195 1380q1 10 10 18.5t18 8.5h738q10 0 17 -8t5 -19l-4 -35q-1 -10 -10.5 -18t-20.5 -8h-663l-80 -566h573q11 0 17.5 -8t5.5 -18l-4 -35q-1 -10 -10.5 -18.5t-20.5 -8.5h-573l-86 -606h665q10 0 17.5 -8t5.5 -19l-6 -32q-2 -11 -10.5 -19t-18.5 -8h-737 q-10 0 -17.5 8t-5.5 19z" />
<glyph unicode="F" horiz-adv-x="1069" d="M129 27l195 1380q1 10 10 18.5t18 8.5h738q10 0 17 -8t5 -19l-4 -35q-1 -10 -10.5 -18t-20.5 -8h-663l-88 -623h581q10 0 17.5 -8t5.5 -19l-4 -34q-1 -10 -10.5 -18.5t-20.5 -8.5h-582l-88 -608q-6 -27 -30 -27h-43q-10 0 -17.5 8t-5.5 19z" />
<glyph unicode="G" horiz-adv-x="1402" d="M133 627q0 169 63.5 323t169.5 264t249.5 175t297.5 65q260 0 420 -190q6 -6 6 -17q0 -13 -10 -20l-37 -33q-19 -19 -35 0q-63 80 -156.5 124t-203.5 44q-102 0 -201 -37.5t-181 -105.5t-144.5 -158t-97.5 -201.5t-35 -228.5q0 -152 59.5 -278t170 -200.5t249.5 -74.5 q64 0 128 13.5t109.5 33t81.5 38.5t54 33l18 13l49 362h-293q-16 0 -20 6t-2 21l6 41q2 13 7.5 19t21.5 6h366q10 0 17.5 -8t5.5 -17l-62 -440q-4 -37 -35 -64q-51 -43 -185 -99t-277 -56q-160 0 -291.5 85t-207 233.5t-75.5 328.5z" />
<glyph unicode="H" horiz-adv-x="1421" d="M129 27l195 1380q4 27 28 27h45q12 0 18.5 -8t4.5 -19l-90 -629h815l88 629q2 11 9.5 19t19.5 8h45q12 0 18 -8q5 -6 5 -14q0 -3 -1 -5l-194 -1380q-2 -11 -10.5 -19t-18.5 -8h-45q-10 0 -17.5 8t-5.5 19l95 665h-814l-94 -665q-2 -11 -10 -19t-20 -8h-43q-10 0 -17.5 8 t-5.5 19z" />
<glyph unicode="I" horiz-adv-x="516" d="M131 27l193 1380q4 27 30 27h45q10 0 17.5 -8t5.5 -19l-193 -1380q-7 -27 -32 -27h-43q-10 0 -17.5 8t-5.5 19z" />
<glyph unicode="J" horiz-adv-x="888" d="M-12 133q-5 9 -5 17q0 11 11 18l29 22q21 18 34 0t22.5 -30.5t29 -32t39.5 -31.5t50.5 -21t63.5 -9q119 0 200.5 78t106.5 251l144 1012q2 12 10 19.5t20 7.5h43q10 0 17.5 -8t5.5 -19l-143 -1010q-30 -211 -136 -314t-276 -103q-57 0 -105.5 17t-80.5 44.5t-49.5 48.5 t-30.5 43z" />
<glyph unicode="K" horiz-adv-x="1093" d="M129 27l195 1376q1 13 10.5 22t21.5 9h39q13 0 21 -8.5t6 -22.5l-92 -639l708 655q19 15 41 15h62q11 0 15 -6q3 -4 3 -9q-1 -3 -1 -6q-2 -8 -9 -14l-731 -676l561 -688q9 -7 1 -21t-28 -14h-49q-23 0 -41 20l-543 674l-92 -667q-3 -27 -34 -27h-41q-23 0 -23 22v5z" />
<glyph unicode="L" horiz-adv-x="935" d="M129 27l195 1380q1 10 10 18.5t18 8.5h47q9 0 15.5 -8.5t5.5 -18.5l-187 -1321h580q24 0 24 -20q0 -3 -1 -7l-7 -36q-3 -23 -28 -23h-649q-10 0 -17.5 8t-5.5 19z" />
<glyph unicode="M" horiz-adv-x="1619" d="M31 27l465 1413q4 14 20 14h19q11 0 14 -14l192 -1233h4l564 1233q6 14 18 14h19q6 0 11 -4t5 -10l68 -1413q0 -27 -27 -27h-49q-9 0 -15 7t-6 16l-41 1171h-4l-540 -1198q-8 -16 -25 -16h-8q-19 0 -21 16l-190 1198h-4l-375 -1171q-8 -23 -27 -23h-49q-20 0 -20 16 q0 5 2 11z" />
<glyph unicode="N" horiz-adv-x="1452" d="M131 27l197 1400q7 27 32 27h11q18 0 30 -18l693 -1254h4l168 1225q2 11 11 19t19 8h41q10 0 17.5 -8t5.5 -19l-197 -1401q-3 -26 -35 -26h-12q-19 0 -31 18l-688 1257h-2l-172 -1228q-4 -27 -51 -27h-18q-10 0 -17.5 8t-5.5 19z" />
<glyph unicode="O" horiz-adv-x="1574" d="M133 614q0 170 62 326t166.5 268.5t248 179t299.5 66.5q119 0 225.5 -50.5t181.5 -137t119 -204.5t44 -249q0 -170 -62 -325t-167 -266t-248.5 -176.5t-299.5 -65.5q-159 0 -290 84.5t-205 230t-74 319.5zM227 627q0 -153 61.5 -280t174 -202t252.5 -75q129 0 251 58 t214 155.5t148 234t56 283.5q0 154 -61 282.5t-173.5 204.5t-252.5 76q-129 0 -252 -58.5t-214.5 -157t-147.5 -235.5t-56 -286z" />
<glyph unicode="P" horiz-adv-x="1136" d="M129 27l195 1380q1 10 10 18.5t18 8.5h400q147 0 251.5 -117.5t104.5 -282.5q0 -142 -64 -262.5t-176 -191t-245 -70.5h-330l-68 -483q-2 -11 -12 -19t-25 -8h-36q-10 0 -17.5 8t-5.5 19zM307 604h324q157 0 267 123.5t110 296.5q0 138 -77.5 225.5t-199.5 87.5h-321z " />
<glyph unicode="Q" horiz-adv-x="1574" d="M133 614q0 170 62 326t166.5 268.5t248 179t299.5 66.5q119 0 225.5 -50.5t181.5 -137t119 -204.5t44 -249q0 -268 -142.5 -481t-373.5 -305l163 -392q3 -9 -2 -19.5t-16 -10.5h-68q-16 0 -24 20l-150 375q-73 -20 -164 -20q-159 0 -290 84.5t-205 230t-74 319.5z M229 627q0 -153 61 -280t173 -202t252 -75q129 0 251 58t214 155.5t148 234t56 283.5q0 154 -61 282.5t-173.5 204.5t-252.5 76q-129 0 -251.5 -58.5t-214 -157t-147 -235.5t-55.5 -286z" />
<glyph unicode="R" horiz-adv-x="1232" d="M129 27l195 1380q4 27 28 27h461q146 0 249 -110.5t103 -270.5q0 -174 -103 -309t-259 -177l190 -530q6 -12 1 -24.5t-21 -12.5h-51q-17 0 -23.5 5.5t-11.5 21.5l-187 528q-25 -2 -75 -2h-326l-74 -526q-2 -11 -12 -19t-25 -8h-36q-10 0 -17.5 8t-5.5 19zM313 647h383 q70 0 136.5 30t117.5 81.5t82 125.5t31 156q0 127 -76 213t-192 86h-383z" />
<glyph unicode="S" horiz-adv-x="1030" d="M76 186l22 29q21 26 43 4q26 -25 41 -38.5t49.5 -39t65 -39t76 -25t94.5 -11.5q138 0 237 89t99 220q0 37 -9.5 69t-30.5 60t-44.5 50.5t-63 47.5t-72.5 43t-87 45q-60 30 -101 54.5t-83 58t-66.5 68t-40 81t-15.5 101.5q0 74 26.5 143.5t78.5 128t139.5 94t198.5 35.5 q98 0 169.5 -27.5t143.5 -76.5q12 -7 12 -23q0 -10 -6 -20l-16 -23q-20 -27 -45 -10q-134 92 -266 92q-82 0 -148 -26.5t-106.5 -71t-62 -97.5t-21.5 -110q0 -52 18 -94.5t55.5 -76.5t79.5 -60t105 -56q90 -43 148 -77.5t109 -81t75 -103t24 -127.5q0 -178 -127.5 -291.5 t-312.5 -113.5q-68 0 -133.5 18t-114 46t-80 52t-53.5 47q-13 13 -13 24q0 10 9 19z" />
<glyph unicode="T" horiz-adv-x="960" d="M168 1376l4 31q1 11 10 19t19 8h790q13 0 19 -8q5 -6 4 -14v-5l-4 -35q-2 -11 -10.5 -18.5t-20.5 -7.5h-348l-185 -1319q-4 -27 -34 -27h-39q-10 0 -17.5 8t-5.5 19l187 1319h-349q-20 0 -20 23v7z" />
<glyph unicode="U" horiz-adv-x="1357" d="M176 403q0 44 6 93l129 911q1 10 10.5 18.5t18.5 8.5h45q10 0 17.5 -8t5.5 -19l-127 -901q-7 -58 -7 -92q0 -160 87 -250t245 -90q181 0 301 115.5t148 314.5l129 903q3 27 30 27h43q9 0 15.5 -8.5t5.5 -18.5l-127 -911q-34 -236 -184 -376t-375 -140q-190 0 -303 114.5 t-113 308.5z" />
<glyph unicode="V" horiz-adv-x="1224" d="M137 1407q-1 5 -1 10q0 17 22 17h55q14 0 18 -15l310 -1247h6l672 1247q10 15 24 15h57q14 0 18 -8q1 -3 1 -6q0 -6 -4 -15l-762 -1407q-11 -18 -27 -18h-8q-18 0 -22 18z" />
<glyph unicode="W" horiz-adv-x="1656" d="M188 1407q-3 27 27 27h49q17 0 21 -23l133 -1169h6l491 1194q9 18 23 18h12q18 0 21 -18l164 -1192h4l460 1167q8 23 27 23h53q23 0 23 -17q0 -5 -2 -10l-565 -1413q-7 -14 -19 -14h-14q-16 0 -19 14l-165 1218h-7l-499 -1218q-6 -14 -19 -14h-14q-19 0 -19 14z" />
<glyph unicode="X" horiz-adv-x="1060" d="M-14 10q-1 2 -1 4q0 8 7 17l500 704l-285 668q-5 12 1 21.5t21 9.5h50q15 0 22 -13l254 -610h2l420 610q8 13 29 13h63q15 0 19 -10q1 -3 1 -6q0 -7 -6 -15l-475 -670l305 -702q6 -12 0.5 -21.5t-20.5 -9.5h-53q-20 0 -25 12l-274 639h-2l-443 -639q-9 -12 -26 -12h-66 q-15 0 -18 10z" />
<glyph unicode="Y" horiz-adv-x="1079" d="M128 1426q5 8 19 8h58q15 0 22 -13l326 -626h4l506 626q13 13 29 13h67q15 0 20 -10q2 -3 2 -6q0 -7 -7 -15l-578 -705l-94 -671q-1 -10 -10.5 -18.5t-20.5 -8.5h-41q-25 0 -22 27l92 669l-371 711q-3 7 -3 12q0 4 2 7z" />
<glyph unicode="Z" horiz-adv-x="991" d="M-18 25l2 16q3 20 14 37l897 1259v6h-645q-24 0 -21 27l4 39q4 25 31 25h754q23 0 23 -19q0 -3 -1 -6l-2 -14q-3 -20 -14 -37l-899 -1262v-6h666q12 0 18 -8t4 -19l-4 -36q-2 -11 -10.5 -19t-20.5 -8h-772q-24 0 -24 19v6z" />
<glyph unicode="[" horiz-adv-x="649" d="M31 -461l262 1868q1 10 10.5 18.5t20.5 8.5h356q10 0 17 -8t5 -19l-4 -31q-2 -11 -10 -18.5t-20 -7.5h-295l-246 -1753h295q10 0 17 -8t5 -19l-4 -31q-2 -11 -10 -18.5t-20 -7.5h-357q-10 0 -17 7.5t-5 18.5z" />
<glyph unicode="\" horiz-adv-x="724" d="M240 1413q-2 11 1.5 16t16.5 5h37q19 0 22 -17l205 -1397q3 -20 -18 -20h-35q-20 0 -23 18z" />
<glyph unicode="]" horiz-adv-x="649" d="M-84 -461l4 31q1 10 10.5 18.5t20.5 8.5h293l245 1753h-292q-11 0 -17.5 8t-5.5 18l4 31q1 10 10.5 18.5t20.5 8.5h354q10 0 17.5 -8t5.5 -19l-262 -1868q-1 -10 -10.5 -18t-20.5 -8h-354q-11 0 -17.5 8t-5.5 18z" />
<glyph unicode="^" horiz-adv-x="966" d="M103 828.5q-1 9.5 10 23.5l469 596q10 14 22 14h2q12 0 19 -14l309 -596q8 -12 3.5 -22.5t-19.5 -10.5h-44q-22 0 -30 17l-250 491h-2l-387 -491q-13 -17 -33 -17h-53q-15 0 -16 9.5z" />
<glyph unicode="_" horiz-adv-x="1071" d="M115 -68l2 21q2 11 10 19t20 8h576q10 0 17 -8t5 -19l-4 -21q-1 -10 -9 -17t-19 -7h-576q-25 0 -22 24z" />
<glyph unicode="`" horiz-adv-x="557" d="M195 1339l24 39q6 10 17 11.5t18 -5.5l270 -184q15 -10 8 -29l-12 -18q-12 -15 -33 -6l-290 162q-16 9 -2 30z" />
<glyph unicode="a" horiz-adv-x="1058" d="M98 412q0 148 64 276t174 203.5t239 75.5q54 0 103 -13.5t81 -34t50.5 -36t26.5 -27.5l20 64q8 26 29 26h20q11 0 19 -10q5 -7 5 -14q0 -3 -1 -7l-121 -884q-1 -12 -11.5 -21.5t-21.5 -9.5h-18q-30 0 -27 33l4 82q-35 -42 -118.5 -90t-188.5 -48q-145 0 -236.5 123.5 t-91.5 311.5zM188 412q0 -142 71 -245.5t183 -103.5q49 0 97.5 17t83.5 41t63.5 50t42.5 43t16 22l70 520q-4 7 -12 17t-29.5 30t-47 36t-66.5 28t-87 12q-106 0 -195 -64.5t-139.5 -171.5t-50.5 -231z" />
<glyph unicode="b" horiz-adv-x="1062" d="M98 31l193 1374q2 11 11.5 20t21.5 9h34q11 0 19.5 -9.5t7.5 -19.5l-78 -531q5 4 14 10t38.5 22t60.5 28.5t77 22.5t91 10q149 0 247.5 -122t98.5 -308q0 -111 -37 -214.5t-99 -179.5t-148 -122t-179 -46q-57 0 -108 17t-83.5 41.5t-52 46t-26.5 37.5l-21 -86 q-8 -31 -37 -31h-18q-13 0 -21 9.5t-6 21.5zM219 229q3 -7 11 -21.5t30 -41t49 -48.5t71.5 -38.5t94.5 -16.5q96 0 181 66t135.5 175t50.5 231q0 145 -79 244.5t-204 99.5q-41 0 -83 -10t-73 -24.5t-56 -29.5t-37 -25l-13 -10z" />
<glyph unicode="c" horiz-adv-x="980" d="M96 403q0 126 42 233.5t112 179t163 111.5t195 40q103 0 177.5 -44.5t115.5 -99.5q4 -5 4 -12q0 -13 -16 -31l-15 -16q-19 -22 -47 6q-97 109 -227 109q-78 0 -152 -32.5t-132.5 -92t-94 -151t-35.5 -200.5q0 -136 86 -238t209 -102q148 0 281 150q11 14 19.5 14 t21.5 -10l24 -20q19 -16 2 -37q-20 -26 -50.5 -54t-76 -59t-106.5 -50.5t-125 -19.5q-160 0 -267.5 122.5t-107.5 303.5z" />
<glyph unicode="d" horiz-adv-x="1058" d="M96 397q0 158 63 288.5t174.5 206t248.5 75.5q70 0 132.5 -23.5t89.5 -46.5l27 -23l76 531q5 29 31 29h35q11 0 19 -9q5 -6 6 -14q0 -3 -1 -6l-190 -1374q-1 -12 -11.5 -21.5t-21.5 -9.5h-20q-30 0 -27 33l4 82q-34 -41 -120.5 -89.5t-190.5 -48.5q-145 0 -234.5 120.5 t-89.5 299.5zM186 403q0 -141 70.5 -240.5t181.5 -99.5q49 0 97.5 17t83.5 41t63.5 50t42.5 43t16 22l76 538q-4 4 -10.5 11t-30 25.5t-49 32t-66 25t-83.5 11.5q-166 0 -279 -139t-113 -337z" />
<glyph unicode="e" horiz-adv-x="970" d="M96 395q0 154 61 284.5t173.5 209t253.5 78.5q126 0 208 -66.5t82 -173.5q0 -68 -30 -120.5t-83.5 -84t-119 -51.5t-146.5 -27q-76 -7 -144 -7q-5 1 -10 1q-73 0 -153 6q-3 -28 -3 -54q0 -130 62 -220q74 -108 210 -107q62 0 120 19t83.5 35t60.5 41q28 20 45 -8l14 -23 q13 -21 -6 -37q-150 -113 -328 -113q-161 0 -255.5 119.5t-94.5 298.5zM201 526q87 -4 171 -6q9 0 19 -1q73 0 140 11q75 12 131 33.5t89 62t33 95.5q0 72 -59 115t-152 43q-134 0 -242 -103t-130 -250z" />
<glyph unicode="f" horiz-adv-x="706" d="M78 -457l186 1317h-135q-14 0 -21.5 9.5t-5.5 21.5l4 24q3 12 13 21.5t20 9.5h135l25 156q55 352 322 352q76 0 135 -28t90 -68q7 -8 7 -18t-9 -21l-23 -25q-24 -20 -41 0q-68 72 -159 72q-101 0 -156 -68.5t-76 -205.5l-22 -146h307q14 0 21.5 -7.5t4.5 -20.5l-6 -31 q-4 -27 -32 -27h-306l-186 -1317q-2 -11 -12.5 -20.5t-22.5 -9.5h-33q-12 0 -20 9q-5 7 -5 15q0 3 1 6z" />
<glyph unicode="g" horiz-adv-x="1058" d="M80 -293q-11 11 -11 22q0 12 13 25l18 19q25 25 54 -6q113 -127 241 -127q40 0 75.5 8.5t75.5 34t71.5 66t57.5 109.5t40 160l6 50q-25 -27 -99.5 -57.5t-168.5 -30.5q-163 0 -261 119t-98 298q0 116 38.5 221.5t102.5 182t152.5 121.5t185.5 45q101 0 170.5 -39.5 t92.5 -71.5l20 64q5 26 31 26h16q11 0 19 -10q5 -6 5 -14q0 -4 -1 -7l-121 -890q-18 -130 -59 -225t-98.5 -148t-121 -77t-137.5 -24q-56 0 -110.5 18.5t-95.5 48t-63.5 50t-39.5 39.5zM188 408q0 -144 75.5 -244.5t199.5 -100.5q53 0 105 15.5t86 36t54 36.5t25 23l82 578 q-4 7 -12 17.5t-30 31t-48 37t-67.5 29t-86.5 12.5q-106 0 -194.5 -65t-138.5 -173t-50 -233z" />
<glyph unicode="h" horiz-adv-x="1036" d="M98 31l193 1374q4 29 26 29h41q11 0 19.5 -9.5t7.5 -19.5l-84 -582q15 17 37.5 36.5t63 46.5t96.5 44t116 17q260 0 260 -295q0 -58 -10 -127l-71 -514q-2 -12 -11.5 -21.5t-21.5 -9.5h-31q-13 0 -21 9.5t-6 21.5l72 514q8 61 8 110q0 92 -28 144q-43 80 -158 80 q-61 0 -121 -23.5t-100 -56t-61.5 -54.5t-28.5 -32l-97 -682q-3 -31 -32 -31h-35q-13 0 -19 9q-4 7 -4 16v6z" />
<glyph unicode="i" horiz-adv-x="442" d="M98 31l125 884q2 12 13 21.5t24 9.5h29q12 0 19 -9.5t5 -21.5l-125 -884q-3 -31 -30 -31h-37q-13 0 -19 9q-4 7 -4 16v6zM236 1276q0 36 28.5 63t65.5 27q30 0 48.5 -19t18.5 -49q0 -37 -26.5 -63.5t-63.5 -26.5q-31 0 -51 19.5t-20 48.5z" />
<glyph unicode="j" horiz-adv-x="442" d="M-174 -461q-2 5 -2 11q0 8 4 16q7 14 25 18q92 22 147.5 79.5t71.5 172.5l151 1079q2 12 13 21.5t24 9.5h29q11 0 19 -9.5t5 -21.5l-147 -1060q-23 -165 -90 -241.5t-197 -117.5q-10 -3 -19 -3q-20 0 -26 20zM236 1278q0 36 28.5 63t65.5 27q30 0 48.5 -19t18.5 -49 q0 -37 -26.5 -63.5t-63.5 -26.5q-31 0 -51 19.5t-20 48.5z" />
<glyph unicode="k" horiz-adv-x="876" d="M98 31l193 1374q2 11 11.5 20t21.5 9h32q11 0 19.5 -9.5t7.5 -19.5l-121 -840l471 367q17 14 37 14h64q12 0 17 -6q3 -4 3 -10q0 -3 -1 -6q-3 -9 -13 -17l-500 -391l387 -475q11 -13 3.5 -27t-21.5 -14h-37h-5.5h-5.5h-5t-5 0.5t-4.5 1.5t-5 2.5t-4.5 3.5t-5 4.5t-5 5.5 l-375 471l-66 -458q-3 -31 -32 -31h-33q-13 0 -19 9q-4 7 -4 16v6z" />
<glyph unicode="l" horiz-adv-x="468" d="M111 31l192 1374q1 10 10.5 19.5t18.5 9.5h39q9 0 18 -9.5t8 -19.5l-196 -1374q-3 -31 -33 -31h-35q-23 0 -23 23q0 4 1 8z" />
<glyph unicode="m" horiz-adv-x="1558" d="M98 31l123 884q2 13 10 22t21 9h20q23 0 23 -24l-4 -95q132 140 297 140q91 0 144 -41t83 -117q29 28 39.5 37.5t48 38.5t67 42.5t77 26.5t96.5 13q81 0 136.5 -31t82 -86.5t33.5 -133.5q2 -24 2 -48q0 -57 -11 -123l-69 -514q-1 -12 -12 -21.5t-23 -9.5h-35 q-25 0 -22 31l71 514q9 64 9 116q0 83 -24 135q-39 82 -155 83q-57 0 -107 -17t-88 -48t-56 -49t-41 -46q4 -24 4 -56q0 -49 -9 -118l-69 -514q-1 -12 -12.5 -21.5t-22.5 -9.5h-33q-27 0 -24 31l71 514q9 62 9 113q0 86 -26 138q-40 84 -151 83q-62 0 -117.5 -22t-90.5 -54 t-53 -54.5t-25 -35.5l-97 -682q-6 -31 -32 -31h-35q-13 0 -19 9q-4 7 -4 16v6z" />
<glyph unicode="n" horiz-adv-x="1034" d="M98 31l125 884q4 31 29 31h20q27 0 27 -24l-6 -95q70 63 122 91q92 49 195 49q264 0 264 -296q0 -57 -10 -126l-73 -514q-2 -12 -11.5 -21.5t-21.5 -9.5h-31q-13 0 -21 9.5t-6 21.5l74 514q8 59 8 107q0 90 -28 144q-42 82 -162 83q-60 0 -115.5 -20t-95.5 -51t-60 -50.5 t-34 -36.5l-99 -690q-3 -31 -34 -31h-33q-13 0 -19 9q-4 7 -4 16v6z" />
<glyph unicode="o" horiz-adv-x="1087" d="M94 403q0 152 68 282t184.5 206t253.5 76q153 0 257 -124t104 -300q0 -153 -68.5 -283.5t-184 -206.5t-249.5 -76q-153 0 -259 124t-106 302zM184 414q0 -150 80 -250.5t205 -100.5q158 0 279.5 139.5t121.5 332.5q0 146 -80.5 245t-203.5 99q-163 0 -282.5 -137 t-119.5 -328z" />
<glyph unicode="p" horiz-adv-x="1058" d="M31 -457l192 1372q1 14 12 22.5t25 8.5h12q27 0 27 -24l-2 -64q32 32 113 70.5t182 38.5q151 0 245.5 -121.5t94.5 -304.5q0 -153 -67 -283t-181.5 -205.5t-249.5 -75.5q-89 0 -148.5 29.5t-90.5 65.5l-74 -529q-2 -11 -13 -20.5t-24 -9.5h-27q-12 0 -20 9.5t-6 20.5z M211 170q26 -37 86 -72t139 -35q109 0 203 65.5t148.5 176t54.5 238.5q0 141 -74.5 238.5t-196.5 97.5q-56 0 -110 -18t-90 -43.5t-56.5 -43.5t-25.5 -26z" />
<glyph unicode="q" horiz-adv-x="1054" d="M96 406q0 152 62 280.5t171.5 204.5t241.5 76q71 0 133.5 -24.5t91 -47t40.5 -39.5l20 64q8 26 31 26h14q10 0 17.5 -9.5t5.5 -21.5l-189 -1372q-2 -11 -12.5 -20.5t-20.5 -9.5h-30q-12 0 -20.5 9.5t-6.5 20.5l74 525q-26 -28 -100 -59.5t-168 -31.5q-156 0 -255.5 122.5 t-99.5 306.5zM186 403q0 -143 80 -241.5t209 -98.5q49 0 97.5 15.5t81.5 36t52.5 36.5t24.5 23l82 580q-4 7 -12 17.5t-30 30.5t-48 36t-67 28.5t-87 12.5q-162 0 -272.5 -138.5t-110.5 -337.5z" />
<glyph unicode="r" horiz-adv-x="735" d="M98 31l125 884q2 12 10.5 21.5t18.5 9.5h22q10 0 18 -7t7 -19l-6 -91q31 45 108.5 91.5t180.5 46.5q71 0 127 -25q23 -12 24 -29q0 -7 -4 -14l-18 -37q-13 -29 -41 -10q-54 27 -117 27q-60 0 -118.5 -31.5t-91.5 -65.5t-56 -69l-99 -682q-3 -31 -30 -31h-37q-13 0 -19 9 q-4 7 -4 16v6z" />
<glyph unicode="s" horiz-adv-x="804" d="M50 101q0 8 5 16l23 33q6 9 19 11t22 -7q28 -24 46.5 -38.5t68.5 -33.5t104 -19q100 0 165.5 55.5t65.5 135.5q0 27 -12 51t-27.5 40.5t-49 37.5t-56.5 33t-70 35q-107 51 -162 106.5t-55 142.5q0 48 19 94.5t55.5 85.5t97 63t135.5 24q135 0 232 -72q13 -9 13 -22 q0 -9 -7 -21l-16 -25q-19 -25 -43 -8q-23 18 -75 39t-110 21q-99 0 -155 -50t-56 -122q0 -55 47 -98t134 -85q58 -26 98 -49t77.5 -54t56.5 -70.5t19 -86.5q0 -125 -92.5 -206t-234.5 -81q-84 0 -156.5 32t-116.5 73q-9 7 -9 19z" />
<glyph unicode="t" horiz-adv-x="696" d="M121 891l6 31q5 24 29 24h108l35 258q1 13 12 22t23 9l26 2q13 0 21.5 -9.5t5.5 -21.5l-35 -260h293q13 0 20 -9q5 -7 5 -16v-6l-4 -24q-1 -13 -11 -22t-22 -9h-293l-88 -616q-6 -43 -5 -75q1 -41 9 -64q16 -42 78 -42q15 0 31 2.5t29.5 6t29.5 10t26.5 11t25.5 12 t21.5 11.5t19 11t13.5 8q17 8 22 5.5t13 -13.5l17 -25q14 -22 -11 -39q-134 -86 -254 -86q-73 0 -113 35.5t-46 95.5q-2 22 -2 47q0 41 6 89l90 616h-111q-21 0 -21 20q0 5 1 11z" />
<glyph unicode="u" horiz-adv-x="1011" d="M135 369l78 546q1 12 11 21.5t20 9.5h32q12 0 20.5 -9.5t6.5 -21.5l-80 -546q-7 -56 -8 -101q0 -88 29 -134q43 -70 166 -71q60 0 115 23t92.5 58.5t53 53.5t25.5 33l97 684q3 31 32 31h33q10 0 18 -10q5 -7 6 -14q0 -3 -1 -7l-121 -884q-2 -13 -10 -22t-19 -9h-24 q-23 0 -23 29l4 86q-12 -17 -34.5 -37t-59.5 -44.5t-91.5 -40.5t-113.5 -16q-165 0 -223 99q-40 68 -40 180q0 52 9 113z" />
<glyph unicode="v" horiz-adv-x="927" d="M109 911q-2 8 -2 14q0 21 22 21h43q22 0 27 -22l192 -774h2l420 774q10 22 33 22h47q15 0 19 -11q1 -3 1 -7q0 -8 -6 -17l-495 -911q-13 -23 -31 -23h-12q-9 0 -16 7.5t-9 15.5z" />
<glyph unicode="w" horiz-adv-x="1329" d="M135 907q-1 5 -1 10q0 10 4 18q6 11 20 11h41q24 0 26 -22l97 -727h4l352 747q12 23 29 23h10q16 0 22 -23l148 -747h2l297 727q10 22 35 22h47q20 0 20 -16q0 -9 -6 -23l-387 -907q-10 -23 -27 -23h-8q-17 0 -20 23l-150 778h-2l-366 -778q-10 -23 -29 -23h-10 q-5 0 -10.5 6.5t-6.5 16.5z" />
<glyph unicode="x" horiz-adv-x="888" d="M-5 10q-1 3 -1 6q0 8 8 17l373 456l-232 424q-7 12 -0.5 22.5t21.5 10.5h45q20 0 31 -22l192 -365h4l299 365q14 22 39 22h51q16 0 21 -10q2 -3 2 -7q0 -8 -8 -16l-355 -432l246 -448q9 -12 2.5 -22.5t-20.5 -10.5h-54q-13 0 -24 20l-209 394h-4l-316 -394 q-20 -20 -38 -20h-56q-13 0 -17 10z" />
<glyph unicode="y" horiz-adv-x="954" d="M102 -478q-2 3 -2 8q0 6 4 15l244 461l-235 901q-5 16 1 27.5t21 11.5h43q22 0 27 -22l201 -809h4l428 809q11 22 30 22h50q14 0 18 -12q2 -4 2 -8q0 -9 -6 -19l-735 -1374q-10 -20 -33 -20h-43q-14 0 -19 9z" />
<glyph unicode="z" horiz-adv-x="802" d="M2 27q0 17 16 41l609 790v2h-445q-11 0 -18 9.5t-4 19.5l6 26q5 17 11 24t18 7h548q12 0 20.5 -6.5t8.5 -15.5q0 -11 -8 -23l-623 -811v-4h449q12 0 19.5 -9t4.5 -22l-4 -24q-2 -12 -12 -21.5t-23 -9.5h-550q-23 0 -23 27z" />
<glyph unicode="{" horiz-adv-x="710" d="M63 459l5 33q2 13 18 18q142 48 160 182l39 287q15 112 51 197.5t81 137t104 84t114.5 44.5t118.5 12q9 0 15 -7t5 -17l-2 -25q-3 -22 -22 -25q-159 -13 -258 -107.5t-127 -295.5l-39 -285q-7 -49 -29 -91t-53 -69.5t-44.5 -37.5t-29.5 -19v-2q95 -63 96 -176 q1 -19 -2 -39l-39 -293q-11 -106 -1 -179t48.5 -120.5t92 -71.5t129.5 -30q17 -3 14 -25l-2 -24q-1 -10 -10.5 -17.5t-18.5 -7.5q-60 0 -113.5 16t-101 51.5t-77.5 90.5t-43.5 133.5t1.5 181.5l41 295q18 134 -108 182q-15 6 -13 19z" />
<glyph unicode="|" horiz-adv-x="415" d="M31 -463l278 1991q7 26 31 26h12q10 0 16 -7.5t3 -18.5l-279 -1991q-1 -10 -9.5 -17t-19.5 -7h-10q-11 0 -17 7t-5 17z" />
<glyph unicode="}" horiz-adv-x="710" d="M-94 -485l2 24q3 22 22 25q77 6 138 30t112 70t85 121t48 178l41 295q6 41 23.5 78t37 60t42 41.5t35 26t18.5 9.5v2q-10 6 -24 18.5t-35 38.5t-31.5 68.5t-3.5 91.5l39 285q12 106 1.5 179.5t-49 121.5t-93 72t-130.5 30q-17 3 -14 25l4 31q3 18 27 18q75 0 140 -27.5 t115.5 -82.5t72.5 -149t6 -216l-39 -287q-19 -135 106 -182q10 -3 12.5 -7.5t1.5 -17.5l-4 -26q-2 -14 -20 -19q-140 -48 -158 -182l-41 -295q-15 -109 -49.5 -192.5t-78.5 -134.5t-102.5 -84t-114.5 -46t-122 -16q-9 0 -15 7.5t-5 17.5z" />
<glyph unicode="~" horiz-adv-x="1085" d="M123 510q-12 12 0 33q4 8 12 21t34.5 46.5t55.5 59t74.5 46.5t91.5 21q94 0 184 -110q22 -27 35 -41t41.5 -31.5t55.5 -17.5q103 0 196 155q13 21 35 6l31 -18q12 -9 0 -33q-4 -8 -12 -21t-34.5 -46.5t-55.5 -59t-74.5 -46.5t-92.5 -21q-30 0 -58 10t-52 29t-37.5 33 t-32.5 36q-2 2 -16.5 19t-19.5 22t-19.5 18t-24.5 18t-25 10t-30 5q-38 0 -75 -20.5t-63 -50.5t-40.5 -50.5t-22.5 -35.5q-6 -10 -18 -12.5t-21 5.5z" />
<glyph unicode="&#xa1;" horiz-adv-x="466" d="M35 -461l137 832q3 9 11.5 16.5t17.5 7.5h16q10 0 17.5 -7.5t5.5 -16.5l-97 -832q-2 -26 -32 -26h-54q-10 0 -17 7.5t-5 18.5zM199 874q0 38 26.5 65.5t63.5 27.5q30 0 49.5 -21t19.5 -51q0 -39 -28 -65.5t-64 -26.5q-30 0 -48.5 20t-18.5 51z" />
<glyph unicode="&#xa2;" horiz-adv-x="1073" d="M137 401q0 159 71 290t190 203.5t259 72.5q46 0 66 -4l37 96q10 23 31 20l18 -6q26 -7 14 -37l-35 -90q58 -21 101 -57t63 -68q11 -20 -12 -43l-27 -22q-6 -6 -11 -8.5t-7.5 -3.5t-7.5 1.5t-6 3.5l-6.5 6.5l-6.5 6.5q-53 63 -120 88l-285 -768q30 -6 67 -6q53 0 105 19 t78 37.5t61 49.5l35 31q21 24 45 4l20 -18q23 -19 7 -39q-20 -26 -53 -54.5t-79.5 -59t-107 -50t-121.5 -19.5q-49 0 -98 15l-80 -217q-8 -22 -35 -19l-16 2q-12 1 -17 12.5t0 22.5l82 217q-99 48 -159 154t-60 237zM246 418q0 -105 40 -187.5t109 -119.5l285 755 q-16 4 -35 4q-159 0 -279 -132t-120 -320z" />
<glyph unicode="&#xa3;" d="M215.5 17q-2.5 17 1.5 30q57 108 97 221.5t48 184.5q9 79 9 165h-80q-12 0 -17.5 8t-3.5 21l2 15q3 20 29 20h64q-1 22 -9 113t-8 143q0 243 125.5 379.5t317.5 136.5q108 0 192 -51t107 -98q10 -24 -13 -45l-18 -19q-9 -9 -21 -9t-22 13q-4 9 -21 26.5t-46.5 40.5 t-76.5 39.5t-98 16.5q-65 0 -125 -29t-107.5 -81.5t-75.5 -134.5t-28 -181q0 -54 8 -147.5t9 -112.5h360q13 0 19 -9t4 -20l-2 -14q-3 -21 -29 -21h-346q3 -64 -12 -165q-29 -198 -117 -369h534q16 0 20.5 -7t2.5 -22l-4 -30q-2 -10 -9.5 -17.5t-17.5 -7.5h-622 q-18 0 -20.5 17z" />
<glyph unicode="&#xa4;" horiz-adv-x="956" d="M146 372.5q2 10.5 8 16.5l112 109q-38 71 -25 161.5t70 159.5l-82 107q-5 5 -3 17t12 20l22 22q10 9 20.5 9.5t14.5 -5.5l80 -108q74 55 152.5 54t136.5 -56l112 108q4 5 16 4.5t19 -10.5l14 -18q16 -23 -4 -39l-110 -105q38 -71 26 -160.5t-69 -158.5l77 -105 q12 -19 -8 -39l-24 -22q-21 -18 -33 -2l-80 104q-71 -53 -152 -53.5t-137 53.5l-104 -104q-7 -8 -19 -8t-20 8l-18 20q-6 10 -4 20.5zM319.5 657.5q-13.5 -82.5 30.5 -139.5q43 -56 111 -56.5t127 56.5t72 139.5t-29 139.5q-43 58 -111 57.5t-127 -57.5 q-60 -57 -73.5 -139.5z" />
<glyph unicode="&#xa5;" d="M206 1424.5q6 9.5 21 9.5h58q17 0 24 -13l318 -633l503 633q10 13 27 13h78q15 0 18.5 -9.5t-6.5 -21.5l-577 -705l-15 -106h271q24 0 20 -27l-2 -14q-1 -10 -9.5 -16.5t-19.5 -6.5h-268l-26 -180h270q24 0 20 -26l-2 -13q-3 -24 -26 -24h-271l-37 -258q-1 -10 -10 -18.5 t-18 -8.5h-47q-10 0 -16.5 8t-4.5 19l37 258h-270q-11 0 -16.5 7t-4.5 17l2 17q3 22 27 22h270l27 180h-270q-10 0 -16.5 7t-4.5 18l2 16q3 23 27 23h270l14 104l-366 707q-7 12 -1 21.5z" />
<glyph unicode="&#xa6;" horiz-adv-x="430" d="M37 -463l100 709q2 11 10.5 18.5t18.5 7.5h12q10 0 16.5 -7.5t4.5 -18.5l-101 -709q-1 -10 -9 -17t-19 -7h-11q-11 0 -17 7t-5 17zM217 821l98 707q7 26 31 26h12q10 0 16 -7.5t3 -18.5l-98 -707q-1 -10 -10.5 -18t-20.5 -8h-8q-11 0 -17.5 8t-5.5 18z" />
<glyph unicode="&#xa7;" horiz-adv-x="1097" d="M45 -292q-2 6 0.5 12.5t9.5 13.5l31 33q22 22 39 2q8 -12 29 -32.5t59.5 -50.5t96 -50.5t118.5 -20.5q79 0 153 33.5t124.5 100.5t50.5 151q0 102 -74.5 171.5t-224.5 129.5q-144 57 -221.5 138.5t-77.5 205.5q0 39 10.5 76.5t24 64t35 54.5t36 42.5t35 33.5t23.5 22 q-1 1 -20 29t-32 50.5t-26 64.5t-13 85q0 51 15.5 102.5t50.5 103.5t85.5 91.5t127.5 64.5t170 25q49 0 98.5 -10.5t84 -26t62.5 -31t42 -26.5l14 -10q8 -4 10.5 -14.5t-8.5 -26.5l-25 -31q-19 -22 -40 -8l-12 9q-13 9 -27.5 19t-39 23t-49.5 23t-58 17t-64 7 q-87 0 -155.5 -28t-107.5 -73t-59 -95.5t-20 -102.5q0 -179 252 -274q86 -33 146.5 -65t110.5 -74t74.5 -95t24.5 -119q0 -45 -14.5 -88t-39.5 -77.5t-46 -57.5t-47 -47t-29 -27q1 -2 11 -14.5t17 -22.5t18.5 -27.5t19.5 -35.5t16 -39.5t12 -47.5t4 -52q0 -106 -62 -193.5 t-163 -135.5t-217 -48q-71 0 -138 21t-112.5 51.5t-71 52.5t-37.5 37q-5 6 -6.5 8.5t-3.5 8.5zM254 559q0 -96 61.5 -155.5t184.5 -110.5q108 -43 190 -100q1 1 31 28.5t49.5 49.5t39 65t19.5 88q0 98 -72.5 160t-228.5 125q-112 47 -151 77q-2 -2 -16 -14.5t-22 -20.5 t-23 -24t-24 -32.5t-18.5 -37t-14.5 -46t-5 -52.5z" />
<glyph unicode="&#xa8;" horiz-adv-x="763" d="M213 1280q0 38 27 65t63 27q32 0 51 -21t19 -53q0 -37 -25.5 -63.5t-62.5 -26.5q-30 0 -51 21t-21 51zM567 1280q0 38 26 65t62 27q32 0 53 -21.5t21 -52.5q0 -37 -27.5 -63.5t-64.5 -26.5q-30 0 -50 21t-20 51z" />
<glyph unicode="&#xa9;" horiz-adv-x="1628" d="M160 618q0 168 63.5 323t169.5 267t248.5 179t294.5 67q156 0 287.5 -87t206.5 -234t75 -320q0 -168 -64 -323t-170 -266t-248.5 -177.5t-293.5 -66.5q-158 0 -289 85.5t-205.5 232t-74.5 320.5zM240 629q0 -156 63.5 -286t178.5 -207t257 -77q175 0 332.5 100t254.5 273 t97 373q0 155 -63.5 284.5t-178.5 206t-257 76.5q-130 0 -255 -59t-219.5 -158t-152 -237.5t-57.5 -288.5zM494 662q0 182 120.5 311t288.5 129q128 0 203 -78q18 -18 -2 -39l-23 -22q-15 -17 -34 -2q-56 59 -154 59q-124 0 -215.5 -103t-91.5 -245q0 -110 62 -185t161 -75 q87 0 168 63q27 17 37 -4l16 -25q10 -19 -8 -34q-98 -88 -229 -88q-123 0 -211 99.5t-88 238.5z" />
<glyph unicode="&#xaa;" horiz-adv-x="675" d="M170 993q0 103 69 167.5t185 64.5q36 0 73.5 -8.5t47.5 -14.5q17 97 2 142t-82 45q-24 0 -48 -3.5t-43 -9.5t-32.5 -11t-26 -10.5t-14.5 -6.5q-16 -5 -22.5 6.5t-6.5 27.5q0 18 19 27q75 45 188 45q76 0 109.5 -37t32 -98.5t-10.5 -142.5l-45 -316q-1 -9 -7.5 -14.5 t-14.5 -5.5h-23q-16 0 -16 16v47q-92 -78 -187 -78q-66 0 -106.5 46t-40.5 122zM236 1006q0 -53 26 -85t70 -32q52 0 102.5 27.5t77.5 60.5l23 170q-49 22 -123 22q-75 0 -125.5 -46.5t-50.5 -116.5z" />
<glyph unicode="&#xab;" horiz-adv-x="815" d="M98 469q-7 18 6 35l238 315q14 19 35 19h33q8 0 12 -5t2.5 -13.5t-8.5 -18.5l-211 -314l121 -321q6 -15 1 -26t-16 -11h-35q-19 0 -28 18zM393 469q-7 18 6 35l238 315q14 19 35 19h33q8 0 12 -5t2.5 -13.5t-8.5 -18.5l-211 -314l121 -321q6 -15 1 -26t-16 -11h-35 q-19 0 -28 18z" />
<glyph unicode="&#xac;" horiz-adv-x="1132" d="M195 696l4 33q2 11 10 19t18 8h709q9 0 14.5 -8t3.5 -19l-57 -412q-1 -10 -9.5 -17t-19.5 -7h-28q-9 0 -15.5 7t-5.5 17l49 353h-653q-10 0 -16 7.5t-4 18.5z" />
<glyph unicode="&#xad;" horiz-adv-x="770" d="M143 500l2 22q1 12 9.5 19.5t19.5 7.5h410q11 0 17 -7.5t5 -19.5l-2 -22q-4 -27 -31 -27h-409q-10 0 -16.5 8t-4.5 19z" />
<glyph unicode="&#xae;" horiz-adv-x="1628" d="M160 618q0 168 63.5 323t169.5 267t248.5 179t294.5 67q156 0 287.5 -87t206.5 -234t75 -320q0 -168 -64 -323t-170 -266t-248.5 -177.5t-293.5 -66.5q-158 0 -289 85.5t-205.5 232t-74.5 320.5zM240 629q0 -156 63.5 -286t178.5 -207t257 -77q175 0 332.5 100t254.5 273 t97 373q0 155 -63.5 284.5t-178.5 206t-257 76.5q-130 0 -255 -59t-219.5 -158t-152 -237.5t-57.5 -288.5zM547 369l98 702q2 11 10.5 19t18.5 8h268q81 0 142 -51.5t61 -145.5q0 -61 -19 -110.5t-51 -80t-65.5 -48.5t-69.5 -25l88 -262q5 -11 -1 -21t-19 -10h-43 q-18 0 -25 21l-82 266h-192l-37 -262q-3 -27 -29 -27h-33q-10 0 -16 8t-4 19zM676 707h211q70 0 122 50.5t52 135.5q0 68 -42.5 99.5t-113.5 31.5h-184z" />
<glyph unicode="&#xaf;" horiz-adv-x="763" d="M80 1243l4 27q4 26 29 26h495q11 0 17.5 -8t5.5 -18l-4 -27q-1 -10 -9.5 -17t-19.5 -7h-496q-25 0 -22 24z" />
<glyph unicode="&#xb0;" horiz-adv-x="727" d="M188 1135q0 132 88.5 225.5t206.5 93.5q93 0 155 -70.5t62 -173.5q0 -130 -89.5 -224.5t-204.5 -94.5q-95 0 -156.5 70.5t-61.5 173.5zM258 1147q0 -76 45.5 -130t112.5 -54q79 0 145 71.5t66 165.5q0 74 -45 127t-109 53q-81 0 -148 -70t-67 -163z" />
<glyph unicode="&#xb1;" d="M184 178l4 31q1 10 10.5 18.5t18.5 8.5h711q9 0 13.5 -8t2.5 -19l-4 -31q-2 -11 -9 -18.5t-16 -7.5h-710q-9 0 -15.5 8t-5.5 18zM272 809l7 31q1 10 9 18t17 8h311l50 344q2 11 10 18t18 7h39q9 0 15.5 -7.5t5.5 -17.5l-49 -344h311q9 0 14.5 -7.5t3.5 -18.5l-6 -31 q-4 -27 -22 -27h-312l-37 -258q-1 -10 -10 -18t-18 -8h-39q-10 0 -16.5 7.5t-4.5 18.5l37 258h-311q-9 0 -16.5 8.5t-6.5 18.5z" />
<glyph unicode="&#xb2;" horiz-adv-x="546" d="M139 1049l2 18l289 266q86 78 86 154q0 44 -28.5 74t-84.5 30q-12 0 -24.5 -2.5t-22 -6t-20 -9.5t-17 -10.5t-15.5 -12t-12.5 -11l-10.5 -10.5l-7 -7q-11 -11 -20 0l-25 24q-8 8 2 21q3 4 8.5 10t24.5 22t39.5 28t51.5 22t63 10q79 0 124.5 -45.5t45.5 -112.5 q0 -108 -109 -207l-219 -198h256q15 0 12 -17l-4 -30q0 -6 -4.5 -11.5t-11.5 -5.5h-354q-15 0 -15 17z" />
<glyph unicode="&#xb3;" horiz-adv-x="567" d="M150 1096q-10 10 4 22l22 23q6 6 13 6t10 -6q1 -1 8.5 -9.5t13 -14t18 -14.5t25 -14.5t32.5 -9.5t42 -4q59 0 107.5 38t48.5 95q0 44 -32.5 72.5t-96.5 28.5h-84q-7 0 -11 6t-2 14l4 25q0 7 5.5 11.5t11.5 4.5h84q55 0 100 41t45 88q0 43 -28.5 68.5t-77.5 25.5 q-16 0 -32 -2.5t-29 -8t-23.5 -10.5t-20.5 -12t-15.5 -11.5t-12.5 -10.5l-7 -6q-3 -5 -9 -5.5t-9 3.5l-21 22q-9 11 3 23q3 3 8.5 9t24.5 20.5t39.5 25.5t52.5 20t65 9q69 0 118.5 -40.5t49.5 -105.5q0 -52 -33 -97.5t-86 -72.5q4 -1 10 -4t22 -14t28 -24.5t22 -37.5t10 -51 q0 -86 -71.5 -143t-165.5 -57q-113 0 -180 84z" />
<glyph unicode="&#xb4;" horiz-adv-x="557" d="M178 1174q-6 16 17 28l321 184q5 4 17 3.5t16 -9.5l18 -43q7 -21 -12 -30l-338 -162q-25 -11 -31 6z" />
<glyph unicode="&#xb5;" horiz-adv-x="1024" d="M53 -457l193 1372q2 12 11 21.5t19 9.5h33q12 0 20.5 -9.5t6.5 -21.5l-76 -520q-25 -167 18 -249.5t164 -82.5q49 0 96 17t77.5 38t59 49.5t38 41t16.5 22.5l96 684q3 31 33 31h33q11 0 18 -9.5t4 -21.5l-120 -884q-2 -13 -10 -22t-19 -9h-25q-22 0 -22 29l4 86 q-12 -17 -34.5 -37t-59.5 -44.5t-91.5 -40.5t-113.5 -16q-145 0 -211 95l-76 -529q-3 -30 -33 -30h-26q-27 0 -23 30z" />
<glyph unicode="&#xb6;" horiz-adv-x="1347" d="M135 934q0 83 30.5 170.5t84.5 161.5t136.5 121t176.5 47h789q10 0 16 -8t4 -19l-4 -25q-1 -12 -9.5 -19t-19.5 -7h-186l-254 -1817q-2 -11 -10.5 -18.5t-18.5 -7.5h-30q-8 0 -14 6.5t-5 19.5l254 1817h-313l-254 -1817q-1 -10 -9.5 -18t-17.5 -8h-30q-10 0 -16 6.5 t-5 19.5l145 1041h-133q-142 0 -224.5 102.5t-82.5 251.5z" />
<glyph unicode="&#xb7;" horiz-adv-x="464" d="M143 524q0 39 29 65.5t66 26.5q30 0 48.5 -20t18.5 -51q0 -38 -26.5 -65t-63.5 -27q-31 0 -51.5 20.5t-20.5 50.5z" />
<glyph unicode="&#xb8;" horiz-adv-x="505" d="M55 -420q-9 11 2 27l25 39q12 19 29 2q25 -25 48.5 -38t59.5 -13q51 0 97 28t46 82q0 38 -29.5 58t-78.5 20q-55 0 -104 -18q-10 -4 -20.5 8.5t-4.5 21.5l147 207l88 -4h-4l-104 -141q20 4 31 4q69 0 119.5 -37.5t50.5 -116.5q0 -81 -68.5 -136.5t-165.5 -55.5 q-105 0 -164 63z" />
<glyph unicode="&#xb9;" horiz-adv-x="352" d="M186 1516q-3 12 9 22l155 100h23q19 0 16 -16l-80 -573q-1 -7 -6 -12t-10 -5h-43q-15 0 -12 17l69 489l-96 -53q-13 -6 -16 4z" />
<glyph unicode="&#xba;" horiz-adv-x="692" d="M188 1047q0 183 80 295t199 112q90 0 138 -62t48 -175q0 -185 -78 -297.5t-200 -112.5q-90 0 -138.5 62.5t-48.5 177.5zM262 1047q0 -83 31 -128t92 -45q86 0 140.5 92t54.5 246q0 85 -31 131t-92 46q-85 0 -140 -94t-55 -248z" />
<glyph unicode="&#xbb;" horiz-adv-x="815" d="M74 166l211 321l-123 314q-6 15 -1 26t17 11h33q19 0 29 -19l149 -315q9 -15 -4 -35l-240 -322q-13 -18 -34 -18h-33q-27 0 -4 37zM369 166l211 321l-123 314q-6 15 -1 26t17 11h33q20 0 29 -19l149 -315q9 -15 -4 -35l-240 -322q-14 -18 -34 -18h-33q-27 0 -4 37z" />
<glyph unicode="&#xbc;" horiz-adv-x="1251" d="M86.5 8.5q-3.5 8.5 3.5 20.5l891 1390q9 15 29 15h37q12 0 15.5 -8.5t-3.5 -20.5l-887 -1385q-14 -20 -35 -20h-35q-12 0 -15.5 8.5zM215 1311q-3 13 8 22l156 101h22q7 0 12.5 -4.5t4.5 -12.5l-80 -573q-1 -7 -6 -12t-10 -5h-43q-16 0 -13 17l70 489l-96 -53 q-13 -7 -17 4zM612 160l2 18l408 428h27q7 0 12 -5.5t4 -12.5l-53 -379h71q7 0 11.5 -4.5t3.5 -11.5l-4 -33q-3 -17 -19 -17h-71l-19 -125q-4 -18 -20 -18h-39q-7 0 -12.5 5.5t-4.5 12.5l17 123h-301q-6 0 -10 6t-3 13zM733 211h203l37 258z" />
<glyph unicode="&#xbd;" horiz-adv-x="1257" d="M86.5 8.5q-3.5 8.5 3.5 20.5l891 1390q9 15 29 15h37q12 0 15.5 -8.5t-3.5 -20.5l-887 -1385q-14 -20 -35 -20h-35q-12 0 -15.5 8.5zM215 1311q-3 13 8 22l156 101h22q7 0 12.5 -4.5t4.5 -12.5l-80 -573q-1 -7 -6 -12t-10 -5h-43q-16 0 -13 17l70 489l-96 -53 q-13 -7 -17 4zM678 16l2 19l289 266q86 78 86 154q0 44 -28.5 74t-84.5 30q-12 0 -24.5 -2.5t-22 -6t-20 -9.5t-17.5 -11t-15.5 -12t-12 -11t-10 -10.5l-7.5 -7.5q-11 -11 -20 0l-25 25q-8 8 2 21q3 4 8.5 10t24.5 22t39 28t51 22t63 10q79 0 124.5 -45.5t45.5 -112.5 q0 -109 -108 -207l-219 -199h256q15 0 12 -16l-4 -31q0 -16 -16 -16h-355q-14 0 -14 16z" />
<glyph unicode="&#xbe;" horiz-adv-x="1398" d="M158 891q-10 10 4 22l22 23q6 6 13 6t10 -6q1 -1 8.5 -9.5t13 -14t18 -14.5t25 -14.5t32.5 -9.5t42 -4q59 0 107.5 38.5t48.5 95.5q0 44 -32.5 72t-96.5 28h-84q-7 0 -11 6t-2 14l5 25q0 16 16 16h84q55 0 100 41t45 88q0 43 -28.5 69t-77.5 26q-19 0 -37.5 -4 t-31.5 -9.5t-26.5 -14t-20 -13.5t-14.5 -13l-9 -8q-3 -5 -9.5 -5.5t-9.5 3.5l-20 23q-9 11 2 22q3 3 8.5 9t24.5 20.5t39.5 25.5t52.5 20t65 9q69 0 118.5 -40t49.5 -105q0 -52 -33 -97.5t-86 -72.5q4 -1 10 -4t22 -14t28 -24.5t22 -37.5t10 -51q0 -87 -71.5 -144 t-165.5 -57q-113 0 -180 84zM234.5 8.5q-3.5 8.5 3.5 20.5l890 1390q9 15 29 15h37q12 0 15.5 -8.5t-3.5 -20.5l-887 -1385q-14 -20 -34 -20h-35q-12 0 -15.5 8.5zM760 160l2 18l407 428h27q6 0 11.5 -5.5t4.5 -12.5l-53 -379h72q7 0 11 -4.5t3 -11.5l-4 -33q-3 -17 -18 -17 h-72l-18 -125q-1 -7 -8 -12.5t-13 -5.5h-39q-7 0 -12 5.5t-4 12.5l16 123h-301q-6 0 -9.5 6t-2.5 13zM881 211h202l37 258z" />
<glyph unicode="&#xbf;" horiz-adv-x="804" d="M-37 -262q0 48 15.5 93.5t34.5 76.5t55 67t58 53.5t64.5 48.5t53.5 40q84 66 92 125l16 116q3 29 29 29h35q27 0 24 -29l-16 -118q-13 -103 -131 -189q-11 -8 -40.5 -30t-43 -32t-38.5 -31t-37.5 -35t-30 -36t-25.5 -41t-14.5 -43.5t-6.5 -50.5q0 -69 47.5 -122.5 t131.5 -53.5q56 0 106 17t83 43t51.5 45.5t29.5 35.5q12 20 35 4l28 -20q9 -6 10.5 -14t-0.5 -12t-8 -13q-4 -7 -12.5 -18.5t-39.5 -40.5t-67.5 -51.5t-97.5 -41t-129 -18.5q-120 0 -191 71.5t-71 174.5zM379 874q0 38 28.5 65.5t65.5 27.5q29 0 48.5 -21t19.5 -51 q0 -39 -27 -65.5t-63 -26.5q-31 0 -51.5 20t-20.5 51z" />
<glyph unicode="&#xc0;" horiz-adv-x="1239" d="M-52 8.5q-3 8.5 3 20.5l758 1411q7 14 26 14h6q21 0 25 -14l373 -1415q8 -25 -23 -25h-53q-23 0 -27 18l-94 377h-692l-197 -377q-9 -18 -33 -18h-59q-10 0 -13 8.5zM297 475h623l-197 815h-6zM621 1796l24 39q12 21 35 6l270 -184q15 -10 8 -29l-12 -18q-12 -15 -33 -6 l-290 161q-16 10 -2 31z" />
<glyph unicode="&#xc1;" horiz-adv-x="1239" d="M-52 8.5q-3 8.5 3 20.5l758 1411q7 14 26 14h6q21 0 25 -14l373 -1415q8 -25 -23 -25h-53q-23 0 -27 18l-94 377h-692l-197 -377q-9 -18 -33 -18h-59q-10 0 -13 8.5zM297 475h623l-197 815h-6zM596 1628q-7 17 16 29l322 184q5 4 17 3.5t16 -9.5l18 -43q7 -21 -12 -31 l-338 -162q-25 -11 -31 7z" />
<glyph unicode="&#xc2;" horiz-adv-x="1239" d="M-52 8.5q-3 8.5 3 20.5l758 1411q7 14 26 14h6q21 0 25 -14l373 -1415q8 -25 -23 -25h-53q-23 0 -27 18l-94 377h-692l-197 -377q-9 -18 -33 -18h-59q-10 0 -13 8.5zM297 475h623l-197 815h-6zM514 1599q-9 15 8 29l252 201q12 10 25 10q8 0 18 -10l197 -201 q16 -16 4 -29l-14 -16q-16 -16 -31 -4l-182 166l-232 -172q-19 -12 -31 4z" />
<glyph unicode="&#xc3;" horiz-adv-x="1239" d="M-52 8.5q-3 8.5 3 20.5l758 1411q7 14 26 14h6q21 0 25 -14l373 -1415q8 -25 -23 -25h-53q-23 0 -27 18l-94 377h-692l-197 -377q-9 -18 -33 -18h-59q-10 0 -13 8.5zM297 475h623l-197 815h-6zM506 1675q1 2 8.5 18t12 25.5t15.5 28t20.5 31t25 27.5t31 24t36.5 15.5 t43 6.5q43 0 71 -29t39.5 -64t30.5 -64t46 -29q68 0 114 121q10 24 31 14l25 -8q15 -10 8 -27q-6 -17 -9.5 -26t-22 -41.5t-37.5 -52.5t-52 -38t-70 -18q-34 0 -58.5 19.5t-38.5 47.5t-25.5 55.5t-27 47t-36.5 19.5q-72 0 -121 -129q-3 -9 -11 -13t-17 0l-23 11q-19 6 -8 28 z" />
<glyph unicode="&#xc4;" horiz-adv-x="1239" d="M-52 8.5q-3 8.5 3 20.5l758 1411q7 14 26 14h6q21 0 25 -14l373 -1415q8 -25 -23 -25h-53q-23 0 -27 18l-94 377h-692l-197 -377q-9 -18 -33 -18h-59q-10 0 -13 8.5zM297 475h623l-197 815h-6zM510 1700q0 38 27 65t63 27q31 0 51.5 -21.5t20.5 -52.5q0 -37 -27.5 -63.5 t-64.5 -26.5q-30 0 -50 21t-20 51zM895 1700q0 38 27 65t63 27q31 0 51.5 -21.5t20.5 -52.5q0 -37 -27.5 -63.5t-64.5 -26.5q-29 0 -49.5 21.5t-20.5 50.5z" />
<glyph unicode="&#xc5;" horiz-adv-x="1239" d="M-52 8.5q-3 8.5 3 20.5l758 1411q7 14 26 14h6q21 0 25 -14l373 -1415q8 -25 -23 -25h-53q-23 0 -27 18l-94 377h-692l-197 -377q-9 -18 -33 -18h-59q-10 0 -13 8.5zM297 475h623l-197 815h-6zM594 1731q0 105 66.5 177t164.5 72q73 0 120.5 -54.5t47.5 -133.5 q0 -105 -65.5 -176.5t-163.5 -71.5q-74 0 -122 54t-48 133zM662 1743q0 -55 31.5 -94t80.5 -39q64 0 107 51t43 121q0 53 -31 92t-76 39q-65 0 -110 -50t-45 -120z" />
<glyph unicode="&#xc6;" horiz-adv-x="1687" d="M-83 10.5q0 10.5 11 24.5l967 1364q10 13 14.5 18t16.5 11t26 6h721q12 0 18.5 -8t4.5 -19l-4 -33q-2 -11 -10.5 -18.5t-20.5 -7.5h-672l-80 -568h578q16 0 25 -8t6 -22l-5 -27q-4 -31 -32 -31h-584l-84 -606h672q12 0 18.5 -9t3.5 -22l-6 -28q-2 -11 -10 -19t-18 -8 h-736q-10 0 -17 8t-5 19l51 368h-481l-260 -377q-15 -18 -35 -18h-60q-13 0 -13 10.5zM342 475h436l109 782z" />
<glyph unicode="&#xc7;" horiz-adv-x="1343" d="M133 616q0 173 63 329t168.5 267t248 176.5t296.5 65.5q264 0 424 -190q6 -7 5.5 -18.5t-7.5 -18.5l-35 -31q-17 -15 -34 2q-65 78 -159 121t-204 43q-128 0 -249.5 -59.5t-212 -158t-145 -235t-54.5 -282.5q0 -151 60 -275.5t170.5 -198t248.5 -73.5q208 0 399 172 q20 17 33 4l39 -43q6 -6 5 -16.5t-9 -18.5q-201 -183 -443 -196l-90 -123q20 4 31 4q69 0 119.5 -37.5t50.5 -116.5q0 -81 -68.5 -136.5t-165.5 -55.5q-104 0 -163 63q-9 11 2 27l24 39q12 19 29 2q25 -25 48.5 -38t59.5 -13q51 0 97.5 28t46.5 82q0 38 -30 58t-79 20 q-55 0 -104 -18q-10 -4 -20.5 8.5t-4.5 21.5l131 185q-150 13 -269.5 100.5t-186 227.5t-66.5 306z" />
<glyph unicode="&#xc8;" horiz-adv-x="1101" d="M129 27l195 1380q1 10 10 18.5t18 8.5h738q10 0 17 -8t5 -19l-4 -35q-1 -10 -10.5 -18t-20.5 -8h-663l-80 -566h573q11 0 17.5 -8t5.5 -18l-4 -35q-1 -10 -10.5 -18.5t-20.5 -8.5h-573l-86 -606h665q10 0 17.5 -8t5.5 -19l-6 -32q-2 -11 -10.5 -19t-18.5 -8h-737 q-10 0 -17.5 8t-5.5 19zM582 1796l24 39q12 21 35 6l270 -184q16 -11 9 -29l-13 -18q-12 -15 -33 -6l-290 161q-16 10 -2 31z" />
<glyph unicode="&#xc9;" horiz-adv-x="1101" d="M129 27l195 1380q1 10 10 18.5t18 8.5h738q10 0 17 -8t5 -19l-4 -35q-1 -10 -10.5 -18t-20.5 -8h-663l-80 -566h573q11 0 17.5 -8t5.5 -18l-4 -35q-1 -10 -10.5 -18.5t-20.5 -8.5h-573l-86 -606h665q10 0 17.5 -8t5.5 -19l-6 -32q-2 -11 -10.5 -19t-18.5 -8h-737 q-10 0 -17.5 8t-5.5 19zM557 1628q-7 17 16 29l322 184q5 4 17 3.5t16 -9.5l18 -43q7 -21 -12 -31l-338 -162q-25 -11 -31 7z" />
<glyph unicode="&#xca;" horiz-adv-x="1101" d="M129 27l195 1380q1 10 10 18.5t18 8.5h738q10 0 17 -8t5 -19l-4 -35q-1 -10 -10.5 -18t-20.5 -8h-663l-80 -566h573q11 0 17.5 -8t5.5 -18l-4 -35q-1 -10 -10.5 -18.5t-20.5 -8.5h-573l-86 -606h665q10 0 17.5 -8t5.5 -19l-6 -32q-2 -11 -10.5 -19t-18.5 -8h-737 q-10 0 -17.5 8t-5.5 19zM467 1599q-9 15 8 29l252 201q13 10 25 10q8 0 18 -10l197 -201q17 -16 4 -29l-15 -16q-16 -16 -30 -4l-183 166l-231 -172q-19 -12 -31 4z" />
<glyph unicode="&#xcb;" horiz-adv-x="1101" d="M129 27l195 1380q1 10 10 18.5t18 8.5h738q10 0 17 -8t5 -19l-4 -35q-1 -10 -10.5 -18t-20.5 -8h-663l-80 -566h573q11 0 17.5 -8t5.5 -18l-4 -35q-1 -10 -10.5 -18.5t-20.5 -8.5h-573l-86 -606h665q10 0 17.5 -8t5.5 -19l-6 -32q-2 -11 -10.5 -19t-18.5 -8h-737 q-10 0 -17.5 8t-5.5 19zM471 1700q0 38 27 65t63 27q31 0 51.5 -21.5t20.5 -52.5q0 -37 -27.5 -63.5t-64.5 -26.5q-30 0 -50 21t-20 51zM856 1700q0 38 27 65t63 27q31 0 51.5 -21.5t20.5 -52.5q0 -37 -27.5 -63.5t-64.5 -26.5q-29 0 -49.5 21.5t-20.5 50.5z" />
<glyph unicode="&#xcc;" horiz-adv-x="516" d="M131 27l193 1380q4 27 30 27h45q10 0 17.5 -8t5.5 -19l-193 -1380q-7 -27 -32 -27h-43q-10 0 -17.5 8t-5.5 19zM248 1796l24 39q12 21 35 6l271 -184q15 -10 8 -29l-13 -18q-12 -15 -32 -6l-291 161q-16 10 -2 31z" />
<glyph unicode="&#xcd;" horiz-adv-x="516" d="M131 27l193 1380q4 27 30 27h45q10 0 17.5 -8t5.5 -19l-193 -1380q-7 -27 -32 -27h-43q-10 0 -17.5 8t-5.5 19zM219 1628q-7 17 17 29l321 184q5 4 17 3.5t16 -9.5l18 -43q7 -21 -12 -31l-338 -162q-25 -11 -31 7z" />
<glyph unicode="&#xce;" horiz-adv-x="516" d="M131 27l193 1380q4 27 30 27h45q10 0 17.5 -8t5.5 -19l-193 -1380q-7 -27 -32 -27h-43q-10 0 -17.5 8t-5.5 19zM139 1599q-9 15 8 29l252 201q12 10 25 10q8 0 18 -10l197 -201q17 -16 4 -29l-14 -16q-16 -16 -31 -4l-182 166l-232 -172q-18 -12 -30 4z" />
<glyph unicode="&#xcf;" horiz-adv-x="516" d="M131 27l193 1380q4 27 30 27h45q10 0 17.5 -8t5.5 -19l-193 -1380q-7 -27 -32 -27h-43q-10 0 -17.5 8t-5.5 19zM139 1700q0 38 27 65t63 27q31 0 51.5 -21.5t20.5 -52.5q0 -37 -27.5 -63.5t-64.5 -26.5q-30 0 -50 21t-20 51zM524 1700q0 38 27 65t63 27q31 0 51.5 -21.5 t20.5 -52.5q0 -37 -27.5 -63.5t-64.5 -26.5q-29 0 -49.5 21.5t-20.5 50.5z" />
<glyph unicode="&#xd0;" horiz-adv-x="1415" d="M131 27l92 653h-63q-10 0 -16.5 8t-4.5 19l2 14q3 22 29 22h61l95 664q2 11 9 19t17 8h410q158 0 286.5 -84t199.5 -226.5t71 -312.5q0 -163 -64 -314t-168 -259.5t-243 -173t-283 -64.5h-409q-10 0 -16.5 8t-4.5 19zM236 88h321q130 0 250 56t209 151t142.5 229 t53.5 283q0 230 -134 384.5t-345 154.5h-321l-84 -603h448q11 0 17.5 -6t5.5 -16l-2 -16q-1 -10 -10.5 -17.5t-18.5 -7.5h-449z" />
<glyph unicode="&#xd1;" horiz-adv-x="1452" d="M131 27l197 1400q7 27 32 27h11q18 0 30 -18l693 -1254h4l168 1225q2 11 11 19t19 8h41q10 0 17.5 -8t5.5 -19l-197 -1401q-3 -26 -35 -26h-12q-19 0 -31 18l-688 1257h-2l-172 -1228q-4 -27 -51 -27h-18q-10 0 -17.5 8t-5.5 19zM612 1675q1 1 8.5 17.5t12 26t16 28 t21 30.5t25 27.5t31 24.5t36.5 15.5t43 6.5q35 0 59.5 -19t37.5 -46.5t24 -55t27 -46.5t38 -19q69 0 115 121q10 24 31 14l24 -8q15 -10 8 -27q-66 -176 -190 -176q-34 0 -58.5 19.5t-38.5 47.5t-25.5 55.5t-27 47t-36.5 19.5q-72 0 -121 -129q-3 -9 -11.5 -13t-17.5 0 l-22 11q-20 7 -9 28z" />
<glyph unicode="&#xd2;" horiz-adv-x="1574" d="M133 614q0 170 62 326t166.5 268.5t248 179t299.5 66.5q119 0 225.5 -50.5t181.5 -137t119 -204.5t44 -249q0 -170 -62 -325t-167 -266t-248.5 -176.5t-299.5 -65.5q-159 0 -290 84.5t-205 230t-74 319.5zM227 627q0 -153 61.5 -280t174 -202t252.5 -75q129 0 251 58 t214 155.5t148 234t56 283.5q0 154 -61 282.5t-173.5 204.5t-252.5 76q-129 0 -252 -58.5t-214.5 -157t-147.5 -235.5t-56 -286zM801 1796l24 39q12 21 35 6l270 -184q16 -11 9 -29l-13 -18q-12 -15 -32 -6l-291 161q-16 10 -2 31z" />
<glyph unicode="&#xd3;" horiz-adv-x="1574" d="M133 614q0 170 62 326t166.5 268.5t248 179t299.5 66.5q119 0 225.5 -50.5t181.5 -137t119 -204.5t44 -249q0 -170 -62 -325t-167 -266t-248.5 -176.5t-299.5 -65.5q-159 0 -290 84.5t-205 230t-74 319.5zM227 627q0 -153 61.5 -280t174 -202t252.5 -75q129 0 251 58 t214 155.5t148 234t56 283.5q0 154 -61 282.5t-173.5 204.5t-252.5 76q-129 0 -252 -58.5t-214.5 -157t-147.5 -235.5t-56 -286zM772 1628q-7 17 16 29l322 184q5 4 17 3.5t16 -9.5l18 -43q7 -21 -12 -31l-338 -162q-25 -11 -31 7z" />
<glyph unicode="&#xd4;" horiz-adv-x="1574" d="M133 614q0 170 62 326t166.5 268.5t248 179t299.5 66.5q119 0 225.5 -50.5t181.5 -137t119 -204.5t44 -249q0 -170 -62 -325t-167 -266t-248.5 -176.5t-299.5 -65.5q-159 0 -290 84.5t-205 230t-74 319.5zM227 627q0 -153 61.5 -280t174 -202t252.5 -75q129 0 251 58 t214 155.5t148 234t56 283.5q0 154 -61 282.5t-173.5 204.5t-252.5 76q-129 0 -252 -58.5t-214.5 -157t-147.5 -235.5t-56 -286zM692 1599q-9 15 8 29l252 201q13 10 25 10q8 0 18 -10l197 -201q16 -16 4 -29l-14 -16q-16 -16 -31 -4l-182 166l-232 -172q-18 -12 -30 4z" />
<glyph unicode="&#xd5;" horiz-adv-x="1574" d="M133 614q0 170 62 326t166.5 268.5t248 179t299.5 66.5q119 0 225.5 -50.5t181.5 -137t119 -204.5t44 -249q0 -170 -62 -325t-167 -266t-248.5 -176.5t-299.5 -65.5q-159 0 -290 84.5t-205 230t-74 319.5zM227 627q0 -153 61.5 -280t174 -202t252.5 -75q129 0 251 58 t214 155.5t148 234t56 283.5q0 154 -61 282.5t-173.5 204.5t-252.5 76q-129 0 -252 -58.5t-214.5 -157t-147.5 -235.5t-56 -286zM686 1675q1 1 8.5 17.5t12 26t16 28t21 30.5t25 27.5t31 24.5t36.5 15.5t43 6.5q35 0 59.5 -19t37.5 -46.5t24 -55t27 -46.5t38 -19 q69 0 115 121q10 24 30 14l25 -8q15 -10 8 -27q-66 -176 -190 -176q-34 0 -59 19.5t-38.5 47.5t-25.5 55.5t-27.5 47t-36.5 19.5q-72 0 -121 -129q-3 -9 -11 -13t-17 0l-23 11q-19 6 -8 28z" />
<glyph unicode="&#xd6;" horiz-adv-x="1574" d="M133 614q0 170 62 326t166.5 268.5t248 179t299.5 66.5q119 0 225.5 -50.5t181.5 -137t119 -204.5t44 -249q0 -170 -62 -325t-167 -266t-248.5 -176.5t-299.5 -65.5q-159 0 -290 84.5t-205 230t-74 319.5zM227 627q0 -153 61.5 -280t174 -202t252.5 -75q129 0 251 58 t214 155.5t148 234t56 283.5q0 154 -61 282.5t-173.5 204.5t-252.5 76q-129 0 -252 -58.5t-214.5 -157t-147.5 -235.5t-56 -286zM690 1700q0 38 27 65t63 27q31 0 51.5 -21.5t20.5 -52.5q0 -37 -27.5 -63.5t-64.5 -26.5q-30 0 -50 21t-20 51zM1075 1700q0 38 27 65t63 27 q31 0 51.5 -21.5t20.5 -52.5q0 -37 -27.5 -63.5t-64.5 -26.5q-29 0 -49.5 21.5t-20.5 50.5z" />
<glyph unicode="&#xd7;" d="M300 446.5q2 10.5 11 18.5l256 250l-182 246q-6 7 -4.5 19.5t8.5 18.5l23 19q8 8 19.5 8t17.5 -8l184 -246l256 252q8 7 18.5 6.5t18.5 -8.5l24 -27q6 -6 4.5 -18t-8.5 -19l-258 -251l184 -246q6 -8 4 -19.5t-10 -17.5l-24 -18q-22 -17 -33 -3l-186 248l-258 -250 q-7 -6 -17 -6t-16 6l-27 27q-7 8 -5 18.5z" />
<glyph unicode="&#xd8;" horiz-adv-x="1572" d="M100 57q-13 20 4 37l134 127q-50 75 -77.5 180.5t-27.5 212.5q0 170 64.5 326t170.5 268t248 179t293 67q129 0 238.5 -53t185.5 -148l140 131q8 8 18 8.5t16 -8.5l6 -8q6 -7 4.5 -18.5t-10.5 -18.5l-137 -131q51 -77 80 -184.5t29 -212.5q0 -169 -65 -324t-172 -265.5 t-249.5 -176t-292.5 -65.5q-131 0 -241 51t-185 145l-135 -127q-6 -7 -16.5 -7t-16.5 7zM223 625q0 -93 23 -183t65 -155l951 903q-67 83 -161.5 128.5t-205.5 45.5q-129 0 -251.5 -58.5t-215 -157t-149 -236.5t-56.5 -287zM348 242q65 -83 159.5 -127.5t207.5 -44.5 q129 0 252 58t216 155.5t149.5 234.5t56.5 285q0 91 -24.5 183.5t-68.5 158.5z" />
<glyph unicode="&#xd9;" horiz-adv-x="1357" d="M176 403q0 44 6 93l129 911q1 10 10.5 18.5t18.5 8.5h45q10 0 17.5 -8t5.5 -19l-127 -901q-7 -58 -7 -92q0 -160 87 -250t245 -90q181 0 301 115.5t148 314.5l129 903q3 27 30 27h43q9 0 15.5 -8.5t5.5 -18.5l-127 -911q-34 -236 -184 -376t-375 -140q-190 0 -303 114.5 t-113 308.5zM659 1796l25 39q12 21 35 6l270 -184q15 -10 8 -29l-12 -18q-12 -15 -33 -6l-290 161q-17 10 -3 31z" />
<glyph unicode="&#xda;" horiz-adv-x="1357" d="M176 403q0 44 6 93l129 911q1 10 10.5 18.5t18.5 8.5h45q10 0 17.5 -8t5.5 -19l-127 -901q-7 -58 -7 -92q0 -160 87 -250t245 -90q181 0 301 115.5t148 314.5l129 903q3 27 30 27h43q9 0 15.5 -8.5t5.5 -18.5l-127 -911q-34 -236 -184 -376t-375 -140q-190 0 -303 114.5 t-113 308.5zM631 1628q-7 17 16 29l322 184q24 12 32 -6l19 -43q7 -21 -12 -31l-338 -162q-25 -11 -31 7z" />
<glyph unicode="&#xdb;" horiz-adv-x="1357" d="M176 403q0 44 6 93l129 911q1 10 10.5 18.5t18.5 8.5h45q10 0 17.5 -8t5.5 -19l-127 -901q-7 -58 -7 -92q0 -160 87 -250t245 -90q181 0 301 115.5t148 314.5l129 903q3 27 30 27h43q9 0 15.5 -8.5t5.5 -18.5l-127 -911q-34 -236 -184 -376t-375 -140q-190 0 -303 114.5 t-113 308.5zM553 1599q-9 15 8 29l252 201q13 10 25 10q8 0 18 -10l197 -201q17 -16 4 -29l-15 -16q-16 -16 -30 -4l-183 166l-231 -172q-19 -12 -31 4z" />
<glyph unicode="&#xdc;" horiz-adv-x="1357" d="M176 403q0 44 6 93l129 911q1 10 10.5 18.5t18.5 8.5h45q10 0 17.5 -8t5.5 -19l-127 -901q-7 -58 -7 -92q0 -160 87 -250t245 -90q181 0 301 115.5t148 314.5l129 903q3 27 30 27h43q9 0 15.5 -8.5t5.5 -18.5l-127 -911q-34 -236 -184 -376t-375 -140q-190 0 -303 114.5 t-113 308.5zM553 1700q0 38 27 65t63 27q31 0 51.5 -21.5t20.5 -52.5q0 -37 -27.5 -63.5t-64.5 -26.5q-30 0 -50 21t-20 51zM938 1700q0 38 27 65t63 27q31 0 51.5 -21.5t20.5 -52.5q0 -37 -27.5 -63.5t-64.5 -26.5q-29 0 -49.5 21.5t-20.5 50.5z" />
<glyph unicode="&#xdd;" horiz-adv-x="1079" d="M128 1426.5q5 7.5 19 7.5h58q15 0 22 -13l326 -626h4l506 626q13 13 29 13h67q15 0 20 -9.5t-5 -21.5l-578 -705l-94 -671q-1 -10 -10.5 -18.5t-20.5 -8.5h-41q-25 0 -22 27l92 669l-371 711q-6 12 -1 19.5zM492 1628q-7 17 16 29l321 184q5 4 17 3.5t16 -9.5l19 -43 q7 -21 -13 -31l-338 -162q-24 -11 -30 7z" />
<glyph unicode="&#xde;" horiz-adv-x="1134" d="M129 27l195 1380q1 10 10 18.5t18 8.5h45q10 0 17.5 -8t5.5 -19l-33 -227h330q146 0 251 -117.5t105 -280.5q0 -141 -67 -262.5t-179 -191.5t-239 -70h-330l-33 -231q-2 -11 -12 -19t-25 -8h-36q-10 0 -17.5 8t-5.5 19zM270 350h324q147 0 264 126t117 296q0 131 -80 221 t-199 90h-321z" />
<glyph unicode="&#xdf;" horiz-adv-x="1138" d="M31 -457l200 1428q34 235 149 359t306 124q148 0 237 -91.5t89 -232.5q0 -64 -26.5 -124.5t-64.5 -104.5t-76 -80.5t-64.5 -66t-26.5 -49.5q0 -19 25 -49t60 -66.5t70.5 -79t60.5 -97.5t25 -110q0 -154 -106 -240t-271 -86q-112 0 -198 46q-32 16 -19 45l11 24 q5 12 16 17.5t25 -0.5q82 -46 180 -46q115 0 190.5 64t75.5 172q0 48 -25.5 97t-61.5 89t-72 76.5t-61.5 71t-25.5 61.5q0 32 27.5 70.5t66.5 77t77.5 81t66 96.5t27.5 109q0 108 -62.5 173t-171.5 65q-157 0 -245.5 -104t-112.5 -291l-203 -1428q-3 -18 -9.5 -24t-23.5 -6 h-39q-10 0 -16 9.5t-4 20.5z" />
<glyph unicode="&#xe0;" horiz-adv-x="1058" d="M98 412q0 148 64 276t174 203.5t239 75.5q54 0 103 -13.5t81 -34t50.5 -36t26.5 -27.5l20 64q8 26 29 26h20q11 0 18.5 -9.5t4.5 -21.5l-121 -884q-1 -12 -11.5 -21.5t-21.5 -9.5h-18q-30 0 -27 33l4 82q-35 -42 -118.5 -90t-188.5 -48q-145 0 -236.5 123.5t-91.5 311.5z M188 412q0 -142 71 -245.5t183 -103.5q49 0 97.5 17t83.5 41t63.5 50t42.5 43t16 22l70 520q-4 7 -12 17t-29.5 30t-47 36t-66.5 28t-87 12q-106 0 -195 -64.5t-139.5 -171.5t-50.5 -231zM469 1339l25 39q6 10 16.5 11.5t17.5 -5.5l271 -184q15 -10 8 -29l-12 -18 q-12 -15 -33 -6l-291 162q-16 9 -2 30z" />
<glyph unicode="&#xe1;" horiz-adv-x="1058" d="M98 412q0 148 64 276t174 203.5t239 75.5q54 0 103 -13.5t81 -34t50.5 -36t26.5 -27.5l20 64q8 26 29 26h20q11 0 18.5 -9.5t4.5 -21.5l-121 -884q-1 -12 -11.5 -21.5t-21.5 -9.5h-18q-30 0 -27 33l4 82q-35 -42 -118.5 -90t-188.5 -48q-145 0 -236.5 123.5t-91.5 311.5z M188 412q0 -142 71 -245.5t183 -103.5q49 0 97.5 17t83.5 41t63.5 50t42.5 43t16 22l70 520q-4 7 -12 17t-29.5 30t-47 36t-66.5 28t-87 12q-106 0 -195 -64.5t-139.5 -171.5t-50.5 -231zM496 1174q-7 17 16 28l322 184q24 12 32 -6l19 -43q7 -20 -13 -30l-337 -162 q-25 -11 -31 6z" />
<glyph unicode="&#xe2;" horiz-adv-x="1056" d="M96 412q0 148 64 276t174 203.5t239 75.5q54 0 103 -13.5t81 -34t50.5 -36t26.5 -27.5l20 64q8 26 29 26h20q11 0 18.5 -9.5t4.5 -21.5l-121 -884q-1 -12 -11.5 -21.5t-21.5 -9.5h-18q-30 0 -27 33l4 82q-35 -42 -118.5 -90t-188.5 -48q-145 0 -236.5 123.5t-91.5 311.5z M186 412q0 -142 71 -245.5t183 -103.5q49 0 97.5 17t83.5 41t63.5 50t42.5 43t16 22l70 520q-4 7 -12 17t-29.5 30t-47 36t-66.5 28t-87 12q-106 0 -195 -64.5t-139.5 -171.5t-50.5 -231zM381 1153q-9 15 8 29l252 200q14 11 25 11q7 0 18 -11l197 -200q17 -16 4 -29 l-15 -16q-16 -16 -30 -4l-183 165l-231 -172q-19 -12 -31 4z" />
<glyph unicode="&#xe3;" horiz-adv-x="1058" d="M98 412q0 148 64 276t174 203.5t239 75.5q54 0 103 -13.5t81 -34t50.5 -36t26.5 -27.5l20 64q8 26 29 26h20q11 0 18.5 -9.5t4.5 -21.5l-121 -884q-1 -12 -11.5 -21.5t-21.5 -9.5h-18q-30 0 -27 33l4 82q-35 -42 -118.5 -90t-188.5 -48q-145 0 -236.5 123.5t-91.5 311.5z M188 412q0 -142 71 -245.5t183 -103.5q49 0 97.5 17t83.5 41t63.5 50t42.5 43t16 22l70 520q-4 7 -12 17t-29.5 30t-47 36t-66.5 28t-87 12q-106 0 -195 -64.5t-139.5 -171.5t-50.5 -231zM385 1225q1 1 8.5 17.5t12 26t16 28t21 30.5t25 27.5t31 24.5t36.5 15.5t43 6.5 q35 0 59.5 -19.5t37.5 -46.5t24 -54.5t27 -47t38 -19.5q69 0 115 121q11 25 30 15l25 -9q14 -9 8 -26q-66 -176 -190 -176q-41 0 -70 29.5t-41.5 64.5t-31.5 64.5t-44 29.5q-72 0 -121 -129q-3 -9 -11 -12.5t-17 0.5l-23 10q-19 6 -8 29z" />
<glyph unicode="&#xe4;" horiz-adv-x="1058" d="M98 412q0 148 64 276t174 203.5t239 75.5q54 0 103 -13.5t81 -34t50.5 -36t26.5 -27.5l20 64q8 26 29 26h20q11 0 18.5 -9.5t4.5 -21.5l-121 -884q-1 -12 -11.5 -21.5t-21.5 -9.5h-18q-30 0 -27 33l4 82q-35 -42 -118.5 -90t-188.5 -48q-145 0 -236.5 123.5t-91.5 311.5z M188 412q0 -142 71 -245.5t183 -103.5q49 0 97.5 17t83.5 41t63.5 50t42.5 43t16 22l70 520q-4 7 -12 17t-29.5 30t-47 36t-66.5 28t-87 12q-106 0 -195 -64.5t-139.5 -171.5t-50.5 -231zM399 1280q0 38 27 65t63 27q32 0 51 -21t19 -53q0 -37 -25.5 -63.5t-62.5 -26.5 q-30 0 -51 21t-21 51zM754 1280q0 38 26 65t62 27q32 0 52.5 -21.5t20.5 -52.5q0 -37 -27.5 -63.5t-64.5 -26.5q-30 0 -49.5 21t-19.5 51z" />
<glyph unicode="&#xe5;" horiz-adv-x="1056" d="M96 412q0 148 64 276t174 203.5t239 75.5q54 0 103 -13.5t81 -34t50.5 -36t26.5 -27.5l20 64q8 26 29 26h20q11 0 18.5 -9.5t4.5 -21.5l-121 -884q-1 -12 -11.5 -21.5t-21.5 -9.5h-18q-30 0 -27 33l4 82q-35 -42 -118.5 -90t-188.5 -48q-145 0 -236.5 123.5t-91.5 311.5z M186 412q0 -142 71 -245.5t183 -103.5q49 0 97.5 17t83.5 41t63.5 50t42.5 43t16 22l70 520q-4 7 -12 17t-29.5 30t-47 36t-66.5 28t-87 12q-106 0 -195 -64.5t-139.5 -171.5t-50.5 -231zM446 1231q0 105 67 177.5t165 72.5q73 0 120.5 -55t47.5 -134q0 -105 -66 -176.5 t-164 -71.5q-74 0 -122 54t-48 133zM514 1243q0 -55 32 -94t81 -39q63 0 106 51t43 121q0 53 -30.5 92t-75.5 39q-65 0 -110.5 -50t-45.5 -120z" />
<glyph unicode="&#xe6;" horiz-adv-x="1501" d="M53 238q0 156 113 263t280 107q142 0 211 -33q16 105 17.5 172.5t-31.5 99.5t-113 32q-130 0 -274 -64q-25 -6 -29 19l-6 36q-1 10 6 19t17 12q14 7 40.5 18t105.5 29.5t155 18.5q187 0 203 -176q59 78 156.5 127t209.5 49q124 0 207.5 -67.5t83.5 -174.5 q-2 -325 -660 -282q-15 1 -20 1l-25 -208q37 -82 109 -127.5t168 -45.5q65 0 121 16t80.5 30.5t62.5 41.5q7 5 10 7q27 20 41 -2l19 -31q12 -22 -8 -39q-51 -44 -138.5 -76.5t-206.5 -32.5q-187 0 -296 162q-58 -63 -160 -112.5t-203 -49.5q-106 0 -176 71t-70 190zM143 244 q0 -86 50.5 -133.5t130.5 -47.5q83 0 163 44.5t121 97.5l39 289q-1 0 -12 3.5t-21.5 7t-30 8t-39.5 7.5t-47 5.5t-55 2.5q-121 0 -210 -80.5t-89 -203.5zM737 526q108 -13 212 -7.5t185.5 24t131 64.5t49.5 114q0 72 -59 115t-152 43q-95 0 -193.5 -55.5t-150.5 -139.5z" />
<glyph unicode="&#xe7;" horiz-adv-x="980" d="M96 403q0 126 42 233.5t112 179t163 111.5t195 40q103 0 177.5 -44.5t115.5 -99.5q13 -15 -12 -43l-15 -16q-19 -22 -47 6q-97 109 -227 109q-78 0 -152 -32.5t-132.5 -92t-94 -151t-35.5 -200.5q0 -136 86 -238t209 -102q148 0 281 150q11 14 19.5 14t21.5 -10l24 -20 q19 -16 2 -37q-44 -57 -123.5 -111.5t-181.5 -66.5l-90 -123q20 4 31 4q69 0 119.5 -37.5t50.5 -116.5q0 -81 -68.5 -136.5t-165.5 -55.5q-104 0 -163 63q-9 11 2 27l24 39q12 19 29 2q25 -25 48.5 -38t59.5 -13q51 0 97.5 28t46.5 82q0 38 -30 58t-79 20q-55 0 -104 -18 q-10 -4 -20.5 8.5t-4.5 21.5l129 183q-148 14 -244 133t-96 290z" />
<glyph unicode="&#xe8;" horiz-adv-x="970" d="M96 395q0 154 61 284.5t173.5 209t253.5 78.5q126 0 208 -66.5t82 -173.5q0 -68 -30 -120.5t-83.5 -84t-119 -51.5t-146.5 -27t-154 -6.5t-153 6.5q-15 -166 59 -273.5t210 -107.5q62 0 120 19t83.5 35t60.5 41q28 20 45 -8l14 -23q13 -21 -6 -37q-150 -113 -328 -113 q-161 0 -255.5 119.5t-94.5 298.5zM201 526q88 -5 171.5 -6.5t158.5 10.5t131 33.5t89 62t33 95.5q0 72 -59 115t-152 43q-134 0 -242 -103t-130 -250zM506 1339l24 39q6 10 17 11.5t18 -5.5l271 -184q15 -10 8 -29l-13 -18q-12 -15 -32 -6l-291 162q-16 9 -2 30z" />
<glyph unicode="&#xe9;" horiz-adv-x="970" d="M96 395q0 154 61 284.5t173.5 209t253.5 78.5q126 0 208 -66.5t82 -173.5q0 -68 -30 -120.5t-83.5 -84t-119 -51.5t-146.5 -27t-154 -6.5t-153 6.5q-15 -166 59 -273.5t210 -107.5q62 0 120 19t83.5 35t60.5 41q28 20 45 -8l14 -23q13 -21 -6 -37q-150 -113 -328 -113 q-161 0 -255.5 119.5t-94.5 298.5zM201 526q88 -5 171.5 -6.5t158.5 10.5t131 33.5t89 62t33 95.5q0 72 -59 115t-152 43q-134 0 -242 -103t-130 -250zM389 1174q-7 16 17 28l321 184q5 4 17 3.5t16 -9.5l18 -43q7 -21 -12 -30l-338 -162q-25 -11 -31 6z" />
<glyph unicode="&#xea;" horiz-adv-x="970" d="M96 395q0 154 61 284.5t173.5 209t253.5 78.5q126 0 208 -66.5t82 -173.5q0 -68 -30 -120.5t-83.5 -84t-119 -51.5t-146.5 -27t-154 -6.5t-153 6.5q-15 -166 59 -273.5t210 -107.5q62 0 120 19t83.5 35t60.5 41q28 20 45 -8l14 -23q13 -21 -6 -37q-150 -113 -328 -113 q-161 0 -255.5 119.5t-94.5 298.5zM201 526q88 -5 171.5 -6.5t158.5 10.5t131 33.5t89 62t33 95.5q0 72 -59 115t-152 43q-134 0 -242 -103t-130 -250zM354 1153q-9 15 8 29l252 200q14 11 25 11q7 0 18 -11l197 -200q16 -16 4 -29l-14 -16q-16 -16 -31 -4l-182 165 l-232 -172q-18 -12 -30 4z" />
<glyph unicode="&#xeb;" horiz-adv-x="970" d="M96 395q0 154 61 284.5t173.5 209t253.5 78.5q126 0 208 -66.5t82 -173.5q0 -68 -30 -120.5t-83.5 -84t-119 -51.5t-146.5 -27t-154 -6.5t-153 6.5q-15 -166 59 -273.5t210 -107.5q62 0 120 19t83.5 35t60.5 41q28 20 45 -8l14 -23q13 -21 -6 -37q-150 -113 -328 -113 q-161 0 -255.5 119.5t-94.5 298.5zM201 526q88 -5 171.5 -6.5t158.5 10.5t131 33.5t89 62t33 95.5q0 72 -59 115t-152 43q-134 0 -242 -103t-130 -250zM391 1280q0 38 27 65t63 27q32 0 51 -21t19 -53q0 -37 -25.5 -63.5t-62.5 -26.5q-30 0 -51 21t-21 51zM745 1280 q0 38 26.5 65t62.5 27q32 0 52.5 -21.5t20.5 -52.5q0 -37 -27.5 -63.5t-64.5 -26.5q-30 0 -50 21t-20 51z" />
<glyph unicode="&#xec;" horiz-adv-x="442" d="M98 31l125 884q2 12 13 21.5t24 9.5h29q12 0 19 -9.5t5 -21.5l-125 -884q-3 -31 -30 -31h-37q-13 0 -19 9t-4 22zM113 1339l24 39q6 10 17 11.5t18 -5.5l270 -184q16 -11 9 -29l-13 -18q-12 -15 -32 -6l-291 162q-16 9 -2 30z" />
<glyph unicode="&#xed;" horiz-adv-x="442" d="M98 31l125 884q2 12 13 21.5t24 9.5h29q12 0 19 -9.5t5 -21.5l-125 -884q-3 -31 -30 -31h-37q-13 0 -19 9t-4 22zM166 1174q-7 17 16 28l322 184q5 4 17 3.5t16 -9.5l18 -43q7 -21 -12 -30l-338 -162q-25 -11 -31 6z" />
<glyph unicode="&#xee;" horiz-adv-x="440" d="M37 1153q-9 15 8 29l252 200q14 11 25 11q7 0 18 -11l197 -200q17 -16 4 -29l-15 -16q-16 -16 -30 -4l-183 165l-231 -172q-19 -12 -31 4zM96 31l125 884q2 12 13 21.5t24 9.5h29q12 0 19 -9.5t5 -21.5l-125 -884q-3 -31 -30 -31h-37q-13 0 -19 9t-4 22z" />
<glyph unicode="&#xef;" horiz-adv-x="440" d="M59 1280q0 38 27.5 65t63.5 27q31 0 50 -21t19 -53q0 -37 -25.5 -63.5t-62.5 -26.5q-30 0 -51 21t-21 51zM96 31l125 884q2 12 13 21.5t24 9.5h29q12 0 19 -9.5t5 -21.5l-125 -884q-3 -31 -30 -31h-37q-13 0 -19 9t-4 22zM414 1280q0 38 26 65t62 27q32 0 52.5 -21.5 t20.5 -52.5q0 -37 -27.5 -63.5t-64.5 -26.5q-30 0 -49.5 21t-19.5 51z" />
<glyph unicode="&#xf0;" horiz-adv-x="1128" d="M92 377q0 116 44 221t113.5 176t156.5 112.5t174 41.5q64 0 123 -18.5t98.5 -45.5t65 -52.5t36.5 -45.5h2q-8 252 -203 455l-237 -140q-9 -5 -19.5 -1t-13.5 14l-4 10q-4 9 -0.5 19.5t12.5 15.5l215 127q-98 86 -200 133q-14 5 -19 18t4 27l19 29q10 20 30 12 q147 -72 254 -168l138 82q12 6 22 2.5t15 -12.5l4 -11q7 -24 -15 -37l-116 -69q210 -221 210 -529q0 -91 -16 -181.5t-46 -176t-77 -159t-106 -128.5t-136.5 -86.5t-164.5 -31.5q-157 0 -260 112.5t-103 284.5zM184 391q0 -140 81 -234t202 -94q89 0 170.5 54t137 137 t87.5 183t31 192q-1 6 -12 25.5t-38 52t-62 61.5t-90.5 50.5t-117.5 21.5q-70 0 -140 -36t-125 -95t-89.5 -143.5t-34.5 -174.5z" />
<glyph unicode="&#xf1;" horiz-adv-x="1034" d="M98 31l125 884q4 31 29 31h20q27 0 27 -24l-6 -95q70 63 122 91q92 49 195 49q315 0 254 -422l-73 -514q-2 -12 -11.5 -21.5t-21.5 -9.5h-31q-13 0 -21 9.5t-6 21.5l74 514q22 169 -19.5 251.5t-162.5 82.5q-60 0 -115.5 -20t-95.5 -51t-60 -50.5t-34 -36.5l-99 -690 q-3 -31 -34 -31h-33q-13 0 -19 9t-4 22zM371 1225q1 2 8.5 18t12 25.5t15.5 28t20.5 31t25 27.5t31 24t36.5 15.5t43 6.5q43 0 71 -29t39.5 -64.5t30.5 -64.5t46 -29q68 0 114 121q11 25 31 15l25 -9q14 -9 8 -26t-9.5 -26t-22 -41.5t-37.5 -52.5t-52 -38t-70 -18 q-34 0 -58.5 19.5t-38.5 47t-25.5 55t-27 47t-36.5 19.5q-72 0 -121 -129q-3 -9 -11.5 -12.5t-17.5 0.5l-22 10q-19 6 -8 29z" />
<glyph unicode="&#xf2;" horiz-adv-x="1087" d="M94 403q0 152 68 282t184.5 206t253.5 76q153 0 257 -124t104 -300q0 -153 -68.5 -283.5t-184 -206.5t-249.5 -76q-153 0 -259 124t-106 302zM184 414q0 -150 80 -250.5t205 -100.5q158 0 279.5 139.5t121.5 332.5q0 146 -80.5 245t-203.5 99q-163 0 -282.5 -137 t-119.5 -328zM430 1339l25 39q6 10 16.5 11.5t17.5 -5.5l271 -184q15 -10 8 -29l-12 -18q-12 -15 -33 -6l-291 162q-16 9 -2 30z" />
<glyph unicode="&#xf3;" horiz-adv-x="1087" d="M94 403q0 152 68 282t184.5 206t253.5 76q153 0 257 -124t104 -300q0 -153 -68.5 -283.5t-184 -206.5t-249.5 -76q-153 0 -259 124t-106 302zM184 414q0 -150 80 -250.5t205 -100.5q158 0 279.5 139.5t121.5 332.5q0 146 -80.5 245t-203.5 99q-163 0 -282.5 -137 t-119.5 -328zM485 1174q-7 16 17 28l321 184q5 4 17 3.5t16 -9.5l18 -43q7 -21 -12 -30l-338 -162q-24 -11 -30 6z" />
<glyph unicode="&#xf4;" horiz-adv-x="1087" d="M94 403q0 152 68 282t184.5 206t253.5 76q153 0 257 -124t104 -300q0 -153 -68.5 -283.5t-184 -206.5t-249.5 -76q-153 0 -259 124t-106 302zM184 414q0 -150 80 -250.5t205 -100.5q158 0 279.5 139.5t121.5 332.5q0 146 -80.5 245t-203.5 99q-163 0 -282.5 -137 t-119.5 -328zM367 1153q-9 15 8 29l252 200q14 11 24 11q8 0 19 -11l196 -200q16 -16 4 -29l-14 -16q-16 -16 -31 -4l-182 165l-231 -172q-19 -12 -31 4z" />
<glyph unicode="&#xf5;" horiz-adv-x="1087" d="M94 403q0 152 68 282t184.5 206t253.5 76q153 0 257 -124t104 -300q0 -153 -68.5 -283.5t-184 -206.5t-249.5 -76q-153 0 -259 124t-106 302zM184 414q0 -150 80 -250.5t205 -100.5q158 0 279.5 139.5t121.5 332.5q0 146 -80.5 245t-203.5 99q-163 0 -282.5 -137 t-119.5 -328zM369 1225q1 2 8.5 18t12 25.5t15.5 28t20.5 31t25 27.5t31 24t36.5 15.5t43 6.5q43 0 71 -29t39.5 -64.5t30.5 -64.5t46 -29q68 0 114 121q11 25 31 15l25 -9q14 -9 8 -26t-9.5 -26t-22 -41.5t-37.5 -52.5t-52 -38t-70 -18q-34 0 -58.5 19.5t-38.5 47t-25.5 55 t-27 47t-36.5 19.5q-72 0 -121 -129q-3 -9 -11.5 -12.5t-17.5 0.5l-22 10q-19 6 -8 29z" />
<glyph unicode="&#xf6;" horiz-adv-x="1087" d="M94 403q0 152 68 282t184.5 206t253.5 76q153 0 257 -124t104 -300q0 -153 -68.5 -283.5t-184 -206.5t-249.5 -76q-153 0 -259 124t-106 302zM184 414q0 -150 80 -250.5t205 -100.5q158 0 279.5 139.5t121.5 332.5q0 146 -80.5 245t-203.5 99q-163 0 -282.5 -137 t-119.5 -328zM397 1280q0 38 27 65t63 27q32 0 51 -21t19 -53q0 -37 -25.5 -63.5t-62.5 -26.5q-30 0 -51 21t-21 51zM752 1280q0 38 26 65t62 27q32 0 52.5 -21.5t20.5 -52.5q0 -37 -27.5 -63.5t-64.5 -26.5q-30 0 -49.5 21t-19.5 51z" />
<glyph unicode="&#xf7;" d="M250 696l4 33q1 10 10.5 18.5t18.5 8.5h708q10 0 16.5 -8t4.5 -19l-4 -33q-2 -11 -10.5 -18.5t-18.5 -7.5h-707q-10 0 -17 7.5t-5 18.5zM498 379q0 37 29 64.5t65 27.5q30 0 48.5 -21t18.5 -51q0 -37 -27 -65.5t-65 -28.5q-29 0 -49 22t-20 52zM588 1022q0 37 29 64.5 t65 27.5q30 0 49 -21t19 -51q0 -37 -27.5 -65.5t-65.5 -28.5q-29 0 -49 22t-20 52z" />
<glyph unicode="&#xf8;" horiz-adv-x="1087" d="M92 107.5q2 11.5 12 19.5l50 45q-58 103 -58 231q0 152 68 282t184.5 206t253.5 76q78 0 146.5 -36.5t119.5 -101.5l60 56q9 9 20.5 9t18.5 -9l10 -11q9 -7 7.5 -20t-13.5 -23l-66 -59q58 -107 58 -229q0 -153 -68.5 -283.5t-184 -206.5t-249.5 -76q-162 0 -271 138 l-43 -41q-20 -20 -38 2l-11 10q-8 10 -6 21.5zM186 414q0 -100 35 -178l580 532q-83 111 -213 111q-163 0 -282.5 -137t-119.5 -328zM256 174q81 -111 215 -111q158 0 279.5 139.5t121.5 332.5q0 101 -36 172z" />
<glyph unicode="&#xf9;" horiz-adv-x="1011" d="M135 369l78 546q1 12 11 21.5t20 9.5h32q12 0 20.5 -9.5t6.5 -21.5l-80 -546q-22 -165 21 -235.5t166 -70.5q60 0 115 23t92.5 58.5t53 53.5t25.5 33l97 684q3 31 32 31h33q11 0 18.5 -9.5t4.5 -21.5l-121 -884q-2 -13 -10 -22t-19 -9h-24q-23 0 -23 29l4 86 q-12 -17 -34.5 -37t-59.5 -44.5t-91.5 -40.5t-113.5 -16q-164 0 -222.5 99t-31.5 293zM371 1339l24 39q6 10 17 11.5t18 -5.5l270 -184q16 -11 9 -29l-13 -18q-12 -15 -32 -6l-291 162q-16 9 -2 30z" />
<glyph unicode="&#xfa;" horiz-adv-x="1011" d="M135 369l78 546q1 12 11 21.5t20 9.5h32q12 0 20.5 -9.5t6.5 -21.5l-80 -546q-22 -165 21 -235.5t166 -70.5q60 0 115 23t92.5 58.5t53 53.5t25.5 33l97 684q3 31 32 31h33q11 0 18.5 -9.5t4.5 -21.5l-121 -884q-2 -13 -10 -22t-19 -9h-24q-23 0 -23 29l4 86 q-12 -17 -34.5 -37t-59.5 -44.5t-91.5 -40.5t-113.5 -16q-164 0 -222.5 99t-31.5 293zM428 1174q-7 17 16 28l322 184q5 4 17 3.5t16 -9.5l18 -43q7 -21 -12 -30l-338 -162q-25 -11 -31 6z" />
<glyph unicode="&#xfb;" horiz-adv-x="1011" d="M135 369l78 546q1 12 11 21.5t20 9.5h32q12 0 20.5 -9.5t6.5 -21.5l-80 -546q-22 -165 21 -235.5t166 -70.5q60 0 115 23t92.5 58.5t53 53.5t25.5 33l97 684q3 31 32 31h33q11 0 18.5 -9.5t4.5 -21.5l-121 -884q-2 -13 -10 -22t-19 -9h-24q-23 0 -23 29l4 86 q-12 -17 -34.5 -37t-59.5 -44.5t-91.5 -40.5t-113.5 -16q-164 0 -222.5 99t-31.5 293zM307 1153q-9 15 8 29l252 200q14 11 25 11q7 0 18 -11l197 -200q17 -16 4 -29l-14 -16q-16 -16 -31 -4l-182 165l-232 -172q-18 -12 -30 4z" />
<glyph unicode="&#xfc;" horiz-adv-x="1011" d="M135 369l78 546q1 12 11 21.5t20 9.5h32q12 0 20.5 -9.5t6.5 -21.5l-80 -546q-22 -165 21 -235.5t166 -70.5q60 0 115 23t92.5 58.5t53 53.5t25.5 33l97 684q3 31 32 31h33q11 0 18.5 -9.5t4.5 -21.5l-121 -884q-2 -13 -10 -22t-19 -9h-24q-23 0 -23 29l4 86 q-12 -17 -34.5 -37t-59.5 -44.5t-91.5 -40.5t-113.5 -16q-164 0 -222.5 99t-31.5 293zM328 1280q0 38 27 65t63 27q31 0 50 -21t19 -53q0 -37 -25.5 -63.5t-62.5 -26.5q-30 0 -50.5 21t-20.5 51zM682 1280q0 38 26 65t62 27q32 0 53 -21.5t21 -52.5q0 -37 -27.5 -63.5 t-64.5 -26.5q-30 0 -50 21t-20 51z" />
<glyph unicode="&#xfd;" horiz-adv-x="954" d="M102 -478.5q-5 8.5 2 23.5l244 461l-235 901q-5 16 1 27.5t21 11.5h43q22 0 27 -22l201 -809h4l428 809q11 22 30 22h50q14 0 18.5 -12t-4.5 -27l-735 -1374q-10 -20 -33 -20h-43q-14 0 -19 8.5zM412 1174q-7 17 16 28l322 184q24 12 32 -6l19 -43q7 -20 -13 -30 l-337 -162q-25 -11 -31 6z" />
<glyph unicode="&#xfe;" horiz-adv-x="1056" d="M31 -457l258 1862q1 13 12.5 21t24.5 8h26q11 0 19.5 -9.5t7.5 -19.5l-80 -547q128 109 289 109q155 0 247.5 -122t92.5 -308q0 -154 -63.5 -282t-178 -203t-256.5 -75q-91 0 -156 34.5t-84 64.5l-73 -533q-2 -11 -12.5 -20.5t-20.5 -9.5h-31q-12 0 -18.5 9.5t-3.5 20.5z M209 176q31 -41 88.5 -77t134.5 -36q170 0 287 134t117 340q0 142 -73.5 242t-195.5 100q-51 0 -100.5 -15.5t-85.5 -40.5t-58.5 -45.5t-37.5 -38.5z" />
<glyph unicode="&#xff;" horiz-adv-x="954" d="M102 -478.5q-5 8.5 2 23.5l244 461l-235 901q-5 16 1 27.5t21 11.5h43q22 0 27 -22l201 -809h4l428 809q11 22 30 22h50q14 0 18.5 -12t-4.5 -27l-735 -1374q-10 -20 -33 -20h-43q-14 0 -19 8.5zM311 1280q0 38 27 65t63 27q32 0 51 -21t19 -53q0 -37 -25.5 -63.5 t-62.5 -26.5q-30 0 -51 21t-21 51zM666 1280q0 38 26 65t62 27q32 0 52.5 -21.5t20.5 -52.5q0 -37 -27.5 -63.5t-64.5 -26.5q-30 0 -49.5 21t-19.5 51z" />
<glyph unicode="&#x152;" horiz-adv-x="1804" d="M133 614q0 170 62 326t166 268.5t246.5 179t297.5 66.5q89 0 156 -20h733q10 0 16.5 -8t4.5 -19l-5 -35q-2 -11 -10 -18.5t-18 -7.5h-666l-78 -566h574q10 0 17 -7.5t5 -18.5l-4 -35q-1 -10 -10.5 -18.5t-20.5 -8.5h-573l-86 -606h666q9 0 15 -8.5t5 -18.5l-6 -32 q-2 -11 -9.5 -19t-17.5 -8h-733q-77 -20 -162 -20q-159 0 -289 84.5t-203 229.5t-73 320zM221 627q0 -152 62.5 -279.5t176 -202.5t253.5 -75q69 0 129 14l178 1262q-66 16 -127 16q-129 0 -251.5 -58.5t-215 -156t-149 -235t-56.5 -285.5z" />
<glyph unicode="&#x153;" horiz-adv-x="1697" d="M96 416q0 109 40.5 211t107.5 176.5t158.5 119t189.5 44.5q103 0 182.5 -52.5t128.5 -144.5q74 88 184.5 142.5t208.5 54.5q132 0 221 -62.5t89 -177.5q0 -77 -38.5 -133t-99.5 -84t-135.5 -43.5t-148.5 -16t-135 2.5t-99 9l-39 5l-18 -219q32 -78 115.5 -131.5 t175.5 -53.5q47 0 89 9t77.5 27.5t51 28.5t42.5 30q28 20 45 -8l14 -25q13 -21 -6 -37q-38 -34 -132 -72.5t-200 -38.5q-99 0 -196.5 61.5t-132.5 137.5q-155 -199 -381 -199q-151 0 -255 126.5t-104 312.5zM186 416q0 -146 80 -249.5t203 -103.5q117 0 209.5 68.5 t130.5 151.5l41 401q-25 73 -95.5 134t-172.5 61q-158 0 -277 -137t-119 -326zM922 549q112 -17 213 -18t189 15t140 61t52 114q0 73 -60 115.5t-158 42.5q-114 0 -208.5 -57.5t-153.5 -135.5z" />
<glyph unicode="&#x178;" horiz-adv-x="1079" d="M128 1426.5q5 7.5 19 7.5h58q15 0 22 -13l326 -626h4l506 626q13 13 29 13h67q15 0 20 -9.5t-5 -21.5l-578 -705l-94 -671q-1 -10 -10.5 -18.5t-20.5 -8.5h-41q-25 0 -22 27l92 669l-371 711q-6 12 -1 19.5zM412 1700q0 38 27 65t63 27q30 0 50.5 -21.5t20.5 -52.5 q0 -37 -27.5 -63.5t-64.5 -26.5q-30 0 -49.5 21t-19.5 51zM797 1700q0 38 27 65t63 27q30 0 50.5 -21.5t20.5 -52.5q0 -37 -27.5 -63.5t-64.5 -26.5q-29 0 -49 21t-20 51z" />
<glyph unicode="&#x2c6;" horiz-adv-x="688" d="M127 1153q-9 15 8 29l252 200q14 11 25 11q7 0 18 -11l197 -200q17 -16 4 -29l-15 -16q-16 -16 -30 -4l-183 165l-231 -172q-19 -12 -31 4z" />
<glyph unicode="&#x2dc;" horiz-adv-x="700" d="M117 1225q1 2 8.5 18t12 25.5t15.5 28t20.5 31t25 27.5t31 24t36.5 15.5t43 6.5q43 0 71 -29t39.5 -64.5t30.5 -64.5t46 -29q68 0 114 121q11 25 31 15l25 -9q14 -9 8 -26t-9.5 -26t-22 -41.5t-37.5 -52.5t-52 -38t-70 -18q-34 0 -58.5 19.5t-38.5 47t-25.5 55t-27 47 t-36.5 19.5q-72 0 -121 -129q-3 -9 -11.5 -12.5t-17.5 0.5l-22 10q-19 6 -8 29z" />
<glyph unicode="&#x2000;" horiz-adv-x="990" />
<glyph unicode="&#x2001;" horiz-adv-x="1980" />
<glyph unicode="&#x2002;" horiz-adv-x="990" />
<glyph unicode="&#x2003;" horiz-adv-x="1980" />
<glyph unicode="&#x2004;" horiz-adv-x="660" />
<glyph unicode="&#x2005;" horiz-adv-x="495" />
<glyph unicode="&#x2006;" horiz-adv-x="330" />
<glyph unicode="&#x2007;" horiz-adv-x="330" />
<glyph unicode="&#x2008;" horiz-adv-x="247" />
<glyph unicode="&#x2009;" horiz-adv-x="396" />
<glyph unicode="&#x200a;" horiz-adv-x="110" />
<glyph unicode="&#x2010;" horiz-adv-x="770" d="M143 500l2 22q1 12 9.5 19.5t19.5 7.5h410q11 0 17 -7.5t5 -19.5l-2 -22q-4 -27 -31 -27h-409q-10 0 -16.5 8t-4.5 19z" />
<glyph unicode="&#x2011;" horiz-adv-x="770" d="M143 500l2 22q1 12 9.5 19.5t19.5 7.5h410q11 0 17 -7.5t5 -19.5l-2 -22q-4 -27 -31 -27h-409q-10 0 -16.5 8t-4.5 19z" />
<glyph unicode="&#x2012;" horiz-adv-x="770" d="M143 500l2 22q1 12 9.5 19.5t19.5 7.5h410q11 0 17 -7.5t5 -19.5l-2 -22q-4 -27 -31 -27h-409q-10 0 -16.5 8t-4.5 19z" />
<glyph unicode="&#x2013;" horiz-adv-x="1050" d="M135 502l2 16q1 10 10.5 18.5t20.5 8.5h702q12 0 18.5 -8t4.5 -19l-2 -16q-4 -25 -31 -25h-702q-11 0 -17.5 7.5t-5.5 17.5z" />
<glyph unicode="&#x2014;" horiz-adv-x="1452" d="M135 502l2 16q1 10 10.5 18.5t20.5 8.5h1104q12 0 18 -8t4 -19l-2 -16q-4 -25 -28 -25h-1106q-11 0 -17.5 7.5t-5.5 17.5z" />
<glyph unicode="&#x2018;" horiz-adv-x="448" d="M195 1108q0 188 172 336q14 12 26 0l21 -21q8 -11 6 -15t-12 -15q-138 -114 -138 -254q0 -30 11 -52q23 23 53 23q29 0 46 -19t17 -47q0 -39 -28.5 -66.5t-69.5 -27.5q-49 0 -76.5 45t-27.5 113z" />
<glyph unicode="&#x2019;" horiz-adv-x="446" d="M207 981q-13 13 6 31q137 113 137 254q0 31 -10 51q-23 -23 -53 -23q-29 0 -46.5 19t-17.5 47q0 38 29 66t70 28q49 0 76.5 -45t27.5 -113q0 -187 -172 -335q-15 -12 -27 0z" />
<glyph unicode="&#x201a;" horiz-adv-x="456" d="M45 -328q-13 12 6 31q137 113 137 254q0 31 -10 51q-22 -22 -53 -22q-29 0 -46.5 18.5t-17.5 46.5q0 38 29 66t70 28q49 0 76.5 -44.5t27.5 -112.5q0 -188 -172 -336q-14 -12 -26 0z" />
<glyph unicode="&#x201c;" horiz-adv-x="778" d="M195 1108q0 188 172 336q14 12 26 0l21 -21q8 -11 6 -15t-12 -15q-138 -114 -138 -254q0 -30 11 -52q23 23 53 23q29 0 46 -19t17 -47q0 -39 -28.5 -66.5t-69.5 -27.5q-49 0 -76.5 45t-27.5 113zM522 1108q0 188 172 336q15 12 27 0l20 -21q7 -11 6 -15t-12 -15 q-137 -113 -137 -254q0 -32 10 -52q23 23 54 23q29 0 46 -19t17 -47q0 -39 -28.5 -66.5t-69.5 -27.5q-49 0 -77 45t-28 113z" />
<glyph unicode="&#x201d;" horiz-adv-x="778" d="M207 981q-13 13 6 31q137 113 137 254q0 31 -10 51q-23 -23 -53 -23q-29 0 -46.5 19t-17.5 47q0 38 29 66t70 28q49 0 76.5 -45t27.5 -113q0 -187 -172 -335q-15 -12 -27 0zM539 981q-13 13 6 31q137 113 137 254q0 31 -10 51q-23 -23 -54 -23q-29 0 -46 19t-17 47 q0 39 28.5 66.5t69.5 27.5q49 0 77 -45t28 -113q0 -187 -172 -335q-15 -12 -27 0z" />
<glyph unicode="&#x201e;" horiz-adv-x="788" d="M45 -328q-13 12 6 31q137 113 137 254q0 31 -10 51q-22 -22 -53 -22q-29 0 -46.5 18.5t-17.5 46.5q0 38 29 66t70 28q49 0 76.5 -44.5t27.5 -112.5q0 -188 -172 -336q-14 -12 -26 0zM377 -328q-13 12 6 31q137 113 137 254q0 31 -10 51q-22 -22 -53 -22q-29 0 -46.5 18.5 t-17.5 46.5q0 38 29 66t70 28q49 0 76.5 -44.5t27.5 -112.5q0 -188 -172 -336q-15 -12 -27 0z" />
<glyph unicode="&#x2022;" horiz-adv-x="667" d="M178 504q0 70 50 120t116 50q55 0 91 -38.5t36 -94.5q0 -67 -51 -115.5t-119 -48.5q-52 0 -87.5 37t-35.5 90z" />
<glyph unicode="&#x2026;" horiz-adv-x="1136" d="M61 53q0 37 29.5 64.5t65.5 27.5q30 0 48.5 -20.5t18.5 -50.5q0 -37 -27 -65.5t-65 -28.5q-29 0 -49.5 21.5t-20.5 51.5zM416 53q0 38 28 65t64 27q30 0 48.5 -20.5t18.5 -50.5q0 -37 -27 -65.5t-63 -28.5q-30 0 -49.5 21.5t-19.5 51.5zM776 53q0 38 28 65t64 27 q30 0 49 -20.5t19 -50.5q0 -37 -27 -65.5t-65 -28.5q-29 0 -48.5 21.5t-19.5 51.5z" />
<glyph unicode="&#x202f;" horiz-adv-x="396" />
<glyph unicode="&#x2039;" horiz-adv-x="520" d="M98 469q-7 18 6 35l238 315q14 19 35 19h33q8 0 12 -5t2.5 -13.5t-8.5 -18.5l-211 -314l121 -321q6 -15 1 -26t-16 -11h-35q-19 0 -28 18z" />
<glyph unicode="&#x203a;" horiz-adv-x="520" d="M74 166l211 321l-123 314q-6 15 -1 26t17 11h33q19 0 29 -19l149 -315q9 -15 -4 -35l-240 -322q-13 -18 -34 -18h-33q-27 0 -4 37z" />
<glyph unicode="&#x205f;" horiz-adv-x="495" />
<glyph unicode="&#x20ac;" d="M45 555l2 14q1 10 9.5 17.5t19.5 7.5h92q4 72 20 178h-88q-10 0 -16 7t-4 18l2 18q1 10 9.5 16.5t19.5 6.5h92q33 127 90 235.5t138.5 195t194.5 136t244 49.5q117 0 209 -34t172 -111q7 -8 6.5 -19.5t-8.5 -19.5l-24 -27q-9 -10 -21 -10t-20 8q-115 121 -316 121 q-204 0 -353 -142t-208 -382h666q13 0 18.5 -9.5t3.5 -21.5l-2 -12q-3 -23 -30 -23h-672q-21 -107 -21 -178h588q11 0 17 -8t4 -19l-2 -14q-3 -23 -27 -23h-580q5 -207 111.5 -332.5t304.5 -125.5q98 0 177.5 35t166.5 98q23 16 35 4l29 -39q16 -19 -4 -35 q-198 -155 -404 -155q-241 0 -377 148t-141 402h-100q-12 0 -18.5 7t-4.5 18z" />
<glyph unicode="&#x2122;" horiz-adv-x="1435" d="M256 1397l2 12q1 10 9.5 17.5t17.5 7.5h385q9 0 14.5 -8t3.5 -19l-2 -14q-1 -12 -9.5 -19.5t-17.5 -7.5h-155l-76 -532q-2 -11 -9.5 -19t-17.5 -8h-26q-8 0 -14 8t-5 19l76 532h-158q-10 0 -15 9t-3 22zM637.5 816.5q-3.5 9.5 1.5 21.5l209 596q5 12 8.5 16t13.5 4h15 q13 0 16 -20l80 -494h2l227 494q10 20 21 20h14q10 0 13.5 -4.5t5.5 -15.5l41 -596q2 -13 -4 -22t-19 -9h-29q-17 0 -20 20l-25 445h-2l-213 -459q-8 -16 -18 -16h-19q-11 0 -14 16l-84 459h-2l-149 -445q-6 -20 -23 -20h-31q-12 0 -15.5 9.5z" />
<glyph unicode="&#x25fc;" horiz-adv-x="942" d="M0 0v942h942v-942h-942z" />
<glyph unicode="&#xfb03;" horiz-adv-x="1652" d="M80 -457l182 1317h-135q-27 0 -27 31l4 24q3 12 14 21.5t23 9.5h131l9 60q31 222 148.5 325t289.5 103q160 0 260 -105q97 125 272 125q99 0 179 -40.5t120 -82.5q14 -18 -2 -37l-24 -28q-14 -20 -39 -2q-1 1 -19 15.5t-24.5 19.5t-26 18.5t-34 19.5t-36 14t-44.5 11.5 t-48 3.5q-125 0 -197 -78t-95 -250l-13 -92h553q13 0 21 -9.5t6 -21.5l-125 -884q-3 -31 -29 -31h-37q-9 0 -17 9.5t-7 21.5l114 829h-491l-182 -1317q-2 -11 -11.5 -20.5t-19.5 -9.5h-35q-12 0 -20 9.5t-6 20.5l182 1317h-490l-182 -1317q-1 -13 -13 -21.5t-26 -8.5h-27 q-13 0 -20.5 9.5t-5.5 20.5zM367 946h489l14 105q15 109 58 200q-30 35 -87 63.5t-134 28.5q-139 0 -223 -81t-109 -258z" />
<glyph unicode="&#xfb04;" horiz-adv-x="1720" d="M80 -457l182 1317h-135q-27 0 -27 31l4 24q3 12 14 21.5t23 9.5h133l9 60q16 114 54.5 198.5t93.5 133.5t120 72.5t141 23.5q101 0 178 -33.5t119 -73.5q50 64 125 95.5t158 31.5q101 0 181 -45t101 -78l21 76q2 10 5 14.5t10.5 8.5t21.5 4h14q12 0 18.5 -9t4.5 -20 l-197 -1374q-1 -14 -12 -22.5t-21 -8.5h-30q-12 0 -19.5 9.5t-5.5 21.5l168 1198q-10 15 -26.5 32t-49.5 44t-81.5 44t-102.5 17q-117 0 -202.5 -84.5t-106.5 -228.5l-15 -107h305q31 0 25 -28l-6 -31q-4 -27 -33 -27h-303l-182 -1317q-2 -11 -11.5 -20.5t-19.5 -9.5h-33 q-12 0 -20 9.5t-6 20.5l182 1317h-492l-182 -1317q-1 -13 -13 -21.5t-26 -8.5h-27q-13 0 -20.5 9.5t-5.5 20.5zM369 946h485l14 105q16 112 66 198q-31 33 -99.5 63.5t-146.5 30.5q-131 0 -208 -80.5t-103 -258.5z" />
</font>
</defs>
</svg>
